<?xml version="1.0" encoding="UTF-8" standalone="no"?>
<!DOCTYPE svg PUBLIC "-//W3C//DTD SVG 1.1//EN" "http://www.w3.org/Graphics/SVG/1.1/DTD/svg11.dtd">
<!-- Generated by Microsoft Visio, SVG Export Remote Device.svg Remote Device -->
<svg xmlns="http://www.w3.org/2000/svg" xmlns:xlink="http://www.w3.org/1999/xlink" xmlns:ev="http://www.w3.org/2001/xml-events"
		xmlns:v="http://schemas.microsoft.com/visio/2003/SVGExtensions/" width="5.90551in" height="5.90551in"
		viewBox="0 0 425.197 425.197" xml:space="preserve" color-interpolation-filters="sRGB" class="st38">
	<v:documentProperties v:langID="1033" v:metric="true" v:viewMarkup="false">
		<v:userDefs>
			<v:ud v:nameU="msvNoAutoConnect" v:val="VT0(0):26"/>
		</v:userDefs>
	</v:documentProperties>

	<style type="text/css">
	<![CDATA[
		.st1 {fill:#ffffff;stroke:none;stroke-linecap:round;stroke-linejoin:round;stroke-width:0.75}
		.st2 {visibility:visible}
		.st3 {fill:#000000;fill-opacity:0.4;filter:url(#filter_2.6666667461395);stroke:#000000;stroke-linecap:round;stroke-linejoin:round;stroke-opacity:0.4}
		.st4 {fill:url(#grad0-9);stroke:#000000;stroke-linecap:round;stroke-linejoin:round;stroke-width:2}
		.st5 {fill:url(#grad11-19);stroke:url(#grad0-17);stroke-linecap:round;stroke-linejoin:round;stroke-width:0.72}
		.st6 {fill:url(#grad12-25)}
		.st7 {fill:url(#grad0-33)}
		.st8 {fill:url(#grad11-39)}
		.st9 {stroke:url(#grad0-17);stroke-linecap:round;stroke-linejoin:round;stroke-width:0.72}
		.st10 {stroke:url(#grad0-17);stroke-linecap:round;stroke-linejoin:round;stroke-width:1.5}
		.st11 {fill:none;stroke:none;stroke-linecap:round;stroke-linejoin:round;stroke-width:2.25}
		.st12 {fill:#000000;fill-opacity:0.4;filter:url(#filter_2.6666667461395);stroke:#000000;stroke-opacity:0.4}
		.st13 {fill:url(#grad0-90);stroke:#c7c8c8;stroke-width:0.25}
		.st14 {fill:none;filter:url(#filter_2.6666667461395);stroke:#000000;stroke-linecap:round;stroke-linejoin:round;stroke-opacity:0.4}
		.st15 {stroke:url(#grad0-214);stroke-linecap:round;stroke-linejoin:round;stroke-width:10}
		.st16 {marker-end:url(#mrkr10-257);marker-start:url(#mrkr10-255);stroke:#000000;stroke-linecap:round;stroke-linejoin:round;stroke-width:1.5}
		.st17 {fill:#000000;fill-opacity:1;stroke:#000000;stroke-opacity:1;stroke-width:0.37313432835821}
		.st18 {fill:#ff00ff;fill-opacity:0}
		.st19 {stroke:#000000;stroke-linecap:round;stroke-linejoin:round;stroke-opacity:0;stroke-width:0.72}
		.st20 {fill:url(#grad3-286)}
		.st21 {stroke:#373773;stroke-linecap:round;stroke-linejoin:round;stroke-width:0.72}
		.st22 {fill:url(#grad3-286);stroke:#555555;stroke-linecap:round;stroke-linejoin:round;stroke-width:0.72}
		.st23 {stroke:#555555;stroke-linecap:round;stroke-linejoin:round;stroke-width:0.72}
		.st24 {stroke:#000000;stroke-linecap:round;stroke-linejoin:round;stroke-width:2}
		.st25 {fill:#ff00ff;fill-opacity:0;stroke:#000000;stroke-linecap:round;stroke-linejoin:round;stroke-opacity:0;stroke-width:0.72}
		.st26 {fill:url(#grad0-312)}
		.st27 {stroke:#ffffff;stroke-linecap:round;stroke-linejoin:round;stroke-width:0.36}
		.st28 {fill:url(#grad11-317)}
		.st29 {fill:url(#grad12-324);stroke:#ffffff;stroke-linecap:round;stroke-linejoin:round;stroke-width:0.36}
		.st30 {stroke:#000000;stroke-linecap:round;stroke-linejoin:round;stroke-width:1}
		.st31 {fill:url(#grad12-333);stroke:#000000;stroke-linecap:round;stroke-linejoin:round;stroke-width:0.36}
		.st32 {stroke:#000000;stroke-linecap:round;stroke-linejoin:round;stroke-width:0.6}
		.st33 {fill:#000000;stroke:#000000;stroke-linecap:round;stroke-linejoin:round;stroke-width:0.36}
		.st34 {fill:url(#grad8-349);stroke:#ffffff;stroke-linecap:round;stroke-linejoin:round;stroke-width:0.12}
		.st35 {fill:url(#grad10-354);stroke:none;stroke-linecap:round;stroke-linejoin:round;stroke-width:0.12}
		.st36 {fill:#000000;stroke:none;stroke-linecap:round;stroke-linejoin:round;stroke-width:0.24}
		.st37 {stroke:#000000;stroke-linecap:round;stroke-linejoin:round;stroke-width:0.36}
		.st38 {fill:none;fill-rule:evenodd;font-size:12px;overflow:visible;stroke-linecap:square;stroke-miterlimit:3}
	]]>
	</style>

	<defs id="Patterns_And_Gradients">
		<linearGradient id="grad0-9" x1="0" y1="0" x2="1" y2="0" gradientTransform="rotate(90 0.5 0.5)">
			<stop offset="0" stop-color="#f2f2f2" stop-opacity="1"/>
			<stop offset="0.74" stop-color="#bfbfbf" stop-opacity="1"/>
			<stop offset="0.83" stop-color="#bfbfbf" stop-opacity="1"/>
			<stop offset="1" stop-color="#d8d8d8" stop-opacity="1"/>
		</linearGradient>
		<pattern id="grad11-19" x="0" y="0" width="1" height="1" patternContentUnits="objectBoundingBox">
			<path d="M 0 1 L 0 0 L 1 0 z" style="fill:url(#grad0-20)"/>
			<path d="M 0 1 L 1 1 L 1 0 z" style="fill:url(#grad0-21)"/>
		</pattern>
		<linearGradient id="grad0-20" x1="0" y1="0" x2="1" y2="0" gradientTransform="rotate(180 0.5 0.5)">
			<stop offset="0" stop-color="#ff00ff" stop-opacity="0"/>
			<stop offset="1" stop-color="#ff00ff" stop-opacity="0"/>
		</linearGradient>
		<linearGradient id="grad0-21" x1="0" y1="0" x2="1" y2="0" gradientTransform="rotate(90 0.5 0.5)">
			<stop offset="0" stop-color="#ff00ff" stop-opacity="0"/>
			<stop offset="1" stop-color="#ff00ff" stop-opacity="0"/>
		</linearGradient>
		<linearGradient id="grad0-17" x1="0" y1="0" x2="1" y2="0" gradientTransform="rotate(90 0.5 0.5)">
			<stop offset="0" stop-color="#7f7f7f" stop-opacity="1"/>
			<stop offset="0.74" stop-color="#000000" stop-opacity="1"/>
			<stop offset="0.83" stop-color="#000000" stop-opacity="1"/>
			<stop offset="1" stop-color="#7f7f7f" stop-opacity="1"/>
		</linearGradient>
		<pattern id="grad12-25" x="0" y="0" width="1" height="1" patternContentUnits="objectBoundingBox">
			<path d="M 0 0 L 0 1 L 1 1 z" style="fill:url(#grad0-26)"/>
			<path d="M 0 0 L 1 0 L 1 1 z" style="fill:url(#grad0-27)"/>
		</pattern>
		<linearGradient id="grad0-26" x1="0" y1="0" x2="1" y2="0" gradientTransform="rotate(90 0.5 0.5)">
			<stop offset="0" stop-color="#e7e4cd" stop-opacity="1"/>
			<stop offset="1" stop-color="#ff6600" stop-opacity="1"/>
		</linearGradient>
		<linearGradient id="grad0-27" x1="0" y1="0" x2="1" y2="0" gradientTransform="rotate(360 0.5 0.5)">
			<stop offset="0" stop-color="#e7e4cd" stop-opacity="1"/>
			<stop offset="1" stop-color="#ff6600" stop-opacity="1"/>
		</linearGradient>
		<linearGradient id="grad0-33" x1="0" y1="0" x2="1" y2="0" gradientTransform="rotate(270 0.5 0.5)">
			<stop offset="0" stop-color="#e7e4cd" stop-opacity="1"/>
			<stop offset="1" stop-color="#ff6600" stop-opacity="1"/>
		</linearGradient>
		<pattern id="grad11-39" x="0" y="0" width="1" height="1" patternContentUnits="objectBoundingBox">
			<path d="M 0 1 L 0 0 L 1 0 z" style="fill:url(#grad0-40)"/>
			<path d="M 0 1 L 1 1 L 1 0 z" style="fill:url(#grad0-26)"/>
		</pattern>
		<linearGradient id="grad0-40" x1="0" y1="0" x2="1" y2="0" gradientTransform="rotate(180 0.5 0.5)">
			<stop offset="0" stop-color="#e7e4cd" stop-opacity="1"/>
			<stop offset="1" stop-color="#ff6600" stop-opacity="1"/>
		</linearGradient>
		<linearGradient id="grad0-59" x1="0" y1="0" x2="1" y2="0" gradientTransform="rotate(180 0.5 0.5)">
			<stop offset="0.01" stop-color="#ff6600" stop-opacity="1"/>
			<stop offset="0.5" stop-color="#e7e4cd" stop-opacity="1"/>
			<stop offset="1" stop-color="#ff6600" stop-opacity="1"/>
		</linearGradient>
		<linearGradient id="grad0-90" x1="0" y1="0" x2="1" y2="0" gradientTransform="rotate(270 0.5 0.5)">
			<stop offset="0" stop-color="#2b4b87" stop-opacity="1"/>
			<stop offset="0.48" stop-color="#4b76c5" stop-opacity="1"/>
			<stop offset="1" stop-color="#90aadb" stop-opacity="1"/>
		</linearGradient>
		<linearGradient id="grad0-214" x1="0" y1="0" x2="1" y2="0" gradientTransform="rotate(90 0.5 0.5)">
			<stop offset="0" stop-color="#fee599" stop-opacity="1"/>
			<stop offset="0.74" stop-color="#bf9000" stop-opacity="1"/>
			<stop offset="0.83" stop-color="#bf9000" stop-opacity="1"/>
			<stop offset="1" stop-color="#ffd965" stop-opacity="1"/>
		</linearGradient>
		<radialGradient id="grad3-286" cx="0.5" cy="0.5" r="0.73">
			<stop offset="0" stop-color="#c6d1e3" stop-opacity="1"/>
			<stop offset="1" stop-color="#4e8ec2" stop-opacity="1"/>
		</radialGradient>
		<linearGradient id="grad0-312" x1="0" y1="0" x2="1" y2="0" gradientTransform="rotate(270 0.5 0.5)">
			<stop offset="0" stop-color="#ffffff" stop-opacity="1"/>
			<stop offset="1" stop-color="#e1d8c1" stop-opacity="1"/>
		</linearGradient>
		<pattern id="grad11-317" x="0" y="0" width="1" height="1" patternContentUnits="objectBoundingBox">
			<path d="M 0 1 L 0 0 L 1 0 z" style="fill:url(#grad0-318)"/>
			<path d="M 0 1 L 1 1 L 1 0 z" style="fill:url(#grad0-319)"/>
		</pattern>
		<linearGradient id="grad0-318" x1="0" y1="0" x2="1" y2="0" gradientTransform="rotate(180 0.5 0.5)">
			<stop offset="0" stop-color="#ffffff" stop-opacity="1"/>
			<stop offset="1" stop-color="#c9ba96" stop-opacity="1"/>
		</linearGradient>
		<linearGradient id="grad0-319" x1="0" y1="0" x2="1" y2="0" gradientTransform="rotate(90 0.5 0.5)">
			<stop offset="0" stop-color="#ffffff" stop-opacity="1"/>
			<stop offset="1" stop-color="#c9ba96" stop-opacity="1"/>
		</linearGradient>
		<pattern id="grad12-324" x="0" y="0" width="1" height="1" patternContentUnits="objectBoundingBox">
			<path d="M 0 0 L 0 1 L 1 1 z" style="fill:url(#grad0-325)"/>
			<path d="M 0 0 L 1 0 L 1 1 z" style="fill:url(#grad0-326)"/>
		</pattern>
		<linearGradient id="grad0-325" x1="0" y1="0" x2="1" y2="0" gradientTransform="rotate(90 0.5 0.5)">
			<stop offset="0" stop-color="#ffffff" stop-opacity="1"/>
			<stop offset="1" stop-color="#b6a06d" stop-opacity="1"/>
		</linearGradient>
		<linearGradient id="grad0-326" x1="0" y1="0" x2="1" y2="0" gradientTransform="rotate(360 0.5 0.5)">
			<stop offset="0" stop-color="#ffffff" stop-opacity="1"/>
			<stop offset="1" stop-color="#b6a06d" stop-opacity="1"/>
		</linearGradient>
		<pattern id="grad12-333" x="0" y="0" width="1" height="1" patternContentUnits="objectBoundingBox">
			<path d="M 0 0 L 0 1 L 1 1 z" style="fill:url(#grad0-334)"/>
			<path d="M 0 0 L 1 0 L 1 1 z" style="fill:url(#grad0-335)"/>
		</pattern>
		<linearGradient id="grad0-334" x1="0" y1="0" x2="1" y2="0" gradientTransform="rotate(90 0.5 0.5)">
			<stop offset="0" stop-color="#ffffff" stop-opacity="1"/>
			<stop offset="1" stop-color="#339966" stop-opacity="1"/>
		</linearGradient>
		<linearGradient id="grad0-335" x1="0" y1="0" x2="1" y2="0" gradientTransform="rotate(360 0.5 0.5)">
			<stop offset="0" stop-color="#ffffff" stop-opacity="1"/>
			<stop offset="1" stop-color="#339966" stop-opacity="1"/>
		</linearGradient>
		<linearGradient id="grad0-339" x1="0" y1="0" x2="1" y2="0" gradientTransform="rotate(270 0.5 0.5)">
			<stop offset="0" stop-color="#ffffff" stop-opacity="1"/>
			<stop offset="1" stop-color="#e7e4cd" stop-opacity="1"/>
		</linearGradient>
		<pattern id="grad8-349" x="0" y="0" width="1" height="1" patternContentUnits="objectBoundingBox">
			<path d="M 0 0 L 1 0 L 1 1 z" style="fill:url(#grad0-339)"/>
			<path d="M 0 0 L 0 1 L 1 1 z" style="fill:url(#grad0-350)"/>
		</pattern>
		<linearGradient id="grad0-350" x1="0" y1="0" x2="1" y2="0" gradientTransform="rotate(180 0.5 0.5)">
			<stop offset="0" stop-color="#ffffff" stop-opacity="1"/>
			<stop offset="1" stop-color="#e7e4cd" stop-opacity="1"/>
		</linearGradient>
		<pattern id="grad10-354" x="0" y="0" width="1" height="1" patternContentUnits="objectBoundingBox">
			<path d="M 0.5 0.5 L 0 0 L 0 1 z" style="fill:url(#grad0-355)"/>
			<path d="M 0.5 0.5 L 1 0 L 1 1 z" style="fill:url(#grad0-356)"/>
			<path d="M 0.5 0.5 L 0 0 L 1 0 z" style="fill:url(#grad0-357)"/>
			<path d="M 0.5 0.5 L 0 1 L 1 1 z" style="fill:url(#grad0-358)"/>
		</pattern>
		<linearGradient id="grad0-355" x1="0" y1="0" x2="1" y2="0" gradientTransform="rotate(180 0.5 0.5)">
			<stop offset="0" stop-color="#000000" stop-opacity="0.4"/>
			<stop offset="1" stop-color="#e7e4cd" stop-opacity="0.4"/>
		</linearGradient>
		<linearGradient id="grad0-356" x1="0" y1="0" x2="1" y2="0" gradientTransform="rotate(360 0.5 0.5)">
			<stop offset="0" stop-color="#000000" stop-opacity="0.4"/>
			<stop offset="1" stop-color="#e7e4cd" stop-opacity="0.4"/>
		</linearGradient>
		<linearGradient id="grad0-357" x1="0" y1="0" x2="1" y2="0" gradientTransform="rotate(270 0.5 0.5)">
			<stop offset="0" stop-color="#000000" stop-opacity="0.4"/>
			<stop offset="1" stop-color="#e7e4cd" stop-opacity="0.4"/>
		</linearGradient>
		<linearGradient id="grad0-358" x1="0" y1="0" x2="1" y2="0" gradientTransform="rotate(90 0.5 0.5)">
			<stop offset="0" stop-color="#000000" stop-opacity="0.4"/>
			<stop offset="1" stop-color="#e7e4cd" stop-opacity="0.4"/>
		</linearGradient>
	</defs>
	<defs id="Markers">
		<g id="lend10">
			<path
					d="M 0 0.75 C -0.414214 0.75 -0.75 0.414214 -0.75 0 -0.75 -0.414214 -0.414214 -0.75 0 -0.75 0.414214 -0.75 0.75 -0.414214 0.75 0 0.75 0.414214 0.414214 0.75 0 0.75 Z "
					style="stroke:none"/>
		</g>
		<marker id="mrkr10-255" class="st17" v:arrowType="10" v:arrowSize="2" v:setback="1.77" refX="1.77" orient="auto"
				markerUnits="strokeWidth" overflow="visible">
			<use xlink:href="#lend10" transform="scale(2.68) "/>
		</marker>
		<marker id="mrkr10-257" class="st17" v:arrowType="10" v:arrowSize="2" v:setback="1.77" refX="-1.77" orient="auto"
				markerUnits="strokeWidth" overflow="visible">
			<use xlink:href="#lend10" transform="scale(-2.68,-2.68) "/>
		</marker>
	</defs>
	<defs id="Filters">
		<filter id="filter_2.6666667461395">
			<feGaussianBlur stdDeviation="2.6666667461395"/>
		</filter>
	</defs>
	<g v:mID="8" v:index="6" v:groupContext="foregroundPage">
		<title>Remote Device</title>
		<v:pageProperties v:drawingScale="0.0393701" v:pageScale="0.0393701" v:drawingUnits="24" v:shadowOffsetX="8.50394"
				v:shadowOffsetY="-8.50394"/>
		<v:layer v:name="Connector" v:index="0"/>
		<v:layer v:name="t_pcb" v:index="1"/>
		<v:layer v:name="t_contacts" v:index="2"/>
		<v:layer v:name="t_components" v:index="3"/>
		<v:layer v:name="t_silk" v:index="4"/>
		<v:layer v:name="t_connectors" v:index="5"/>
		<g id="shape204-1" v:mID="204" v:groupContext="shape" transform="translate(1.27716E-05,-1.27716E-05)">
			<title>Sheet.204</title>
			<rect x="0" y="0" width="425.197" height="425.197" class="st1"/>
		</g>
		<g id="shape383-3" v:mID="383" v:groupContext="shape" transform="translate(248.658,-87.874)">
			<title>Rounded Rectangle</title>
			<v:userDefs>
				<v:ud v:nameU="CTypeTopLeftSnip" v:prompt="" v:val="VT0(0):5"/>
				<v:ud v:nameU="CTypeTopRightSnip" v:prompt="" v:val="VT0(0):5"/>
				<v:ud v:nameU="CTypeBotLeftSnip" v:prompt="" v:val="VT0(0):5"/>
				<v:ud v:nameU="CTypeBotRightSnip" v:prompt="" v:val="VT0(0):5"/>
				<v:ud v:nameU="CornerLockHoriz" v:prompt="" v:val="VT0(1):5"/>
				<v:ud v:nameU="CornerLockVert" v:prompt="" v:val="VT0(1):5"/>
				<v:ud v:nameU="CornerLockDiag" v:prompt="" v:val="VT0(0):5"/>
				<v:ud v:nameU="TopLeftOffset" v:prompt="" v:val="VT0(0.15748031496063):24"/>
				<v:ud v:nameU="TopRightOffset" v:prompt="" v:val="VT0(0.15748031496063):24"/>
				<v:ud v:nameU="BotLeftOffset" v:prompt="" v:val="VT0(0.15748031496063):24"/>
				<v:ud v:nameU="BotRightOffset" v:prompt="" v:val="VT0(0.15748031496063):24"/>
				<v:ud v:nameU="visVersion" v:prompt="" v:val="VT0(15):26"/>
				<v:ud v:nameU="TopLeftOffset" v:prompt="" v:val="VT0(0.22019297460597):1"/>
				<v:ud v:nameU="TopRightOffset" v:prompt="" v:val="VT0(0.22019297460597):1"/>
				<v:ud v:nameU="BotLeftOffset" v:prompt="" v:val="VT0(0.22019297460597):1"/>
				<v:ud v:nameU="BotRightOffset" v:prompt="" v:val="VT0(0.22019297460597):1"/>
			</v:userDefs>
			<g id="shadow383-4" v:groupContext="shadow" v:shadowOffsetX="2.12132" v:shadowOffsetY="-2.12132" v:shadowType="1"
					transform="matrix(1,0,0,1,2.12132,2.12132)" class="st2">
				<path d="M15.85 425.2 L142.69 425.2 A15.8536 15.8536 -180 0 0 158.54 409.34 L158.54 231.29 A15.8536 15.8536 -180
							 0 0 142.69 215.43 L15.85 215.43 A15.8536 15.8536 -180 0 0 0 231.29 L0 409.34 A15.8536 15.8536 -180 0
							 0 15.85 425.2 Z" class="st3"/>
			</g>
			<path d="M15.85 425.2 L142.69 425.2 A15.8536 15.8536 -180 0 0 158.54 409.34 L158.54 231.29 A15.8536 15.8536 -180 0 0
						 142.69 215.43 L15.85 215.43 A15.8536 15.8536 -180 0 0 0 231.29 L0 409.34 A15.8536 15.8536 -180 0 0 15.85
						 425.2 Z" class="st4"/>
		</g>
		<g id="group6364-10" transform="translate(217.477,-138.425)" v:mID="6364" v:groupContext="group">
			<v:custProps>
				<v:cp v:nameU="ShapeClass" v:lbl="ShapeClass" v:type="0" v:invis="true" v:ask="false" v:langID="1033"
						v:val="VT4(Equipment)"/>
				<v:cp v:nameU="ShapeType" v:lbl="ShapeType" v:type="0" v:invis="true" v:ask="false" v:langID="1033"
						v:val="VT4(Device)"/>
				<v:cp v:nameU="SubShapeType" v:lbl="SubShapeType" v:type="0" v:invis="true" v:ask="false" v:langID="1033"
						v:val="VT4(Firewall)"/>
				<v:cp v:nameU="Manufacturer" v:lbl="Manufacturer" v:type="0" v:sortKey="Equipment" v:invis="false" v:ask="false"
						v:langID="1033"/>
				<v:cp v:nameU="ProductNumber" v:lbl="Product Number" v:type="0" v:sortKey="Equipment" v:invis="false" v:ask="false"
						v:langID="1033"/>
				<v:cp v:nameU="PartNumber" v:lbl="Part Number" v:type="0" v:sortKey="Equipment" v:invis="false" v:ask="false"
						v:langID="1033"/>
				<v:cp v:nameU="ProductDescription" v:lbl="Product Description" v:type="0" v:sortKey="Equipment" v:invis="false"
						v:ask="false" v:langID="1033"/>
				<v:cp v:nameU="AssetNumber" v:lbl="Asset Number" v:type="0" v:sortKey="Asset" v:invis="false" v:ask="false"
						v:langID="1033"/>
				<v:cp v:nameU="SerialNumber" v:lbl="Serial Number" v:type="0" v:sortKey="Asset" v:invis="false" v:ask="false"
						v:langID="1033"/>
				<v:cp v:nameU="Location" v:lbl="Location" v:type="0" v:sortKey="Asset" v:invis="false" v:ask="false"
						v:langID="1033"/>
				<v:cp v:nameU="Building" v:lbl="Building" v:type="0" v:sortKey="Asset" v:invis="false" v:ask="false"
						v:langID="1033"/>
				<v:cp v:nameU="Room" v:lbl="Room" v:type="0" v:sortKey="Asset" v:invis="false" v:ask="false" v:langID="1033"/>
			</v:custProps>
			<v:userDefs>
				<v:ud v:nameU="HasText" v:val="VT0(0):5"/>
				<v:ud v:nameU="ShapeClass" v:val="VT0(5):26"/>
				<v:ud v:nameU="ShapeType" v:val="VT0(8):26"/>
				<v:ud v:nameU="SubShapeType" v:val="VT0(27):26"/>
				<v:ud v:nameU="SolSH" v:val="VT15({BF0433D9-CD73-4EB5-8390-8653BE590246}):41"/>
				<v:ud v:nameU="visLegendShape" v:val="VT0(2):26"/>
				<v:ud v:nameU="visVersion" v:prompt="" v:val="VT0(15):26"/>
			</v:userDefs>
			<title>Firewall.31</title>
			<g id="shape6365-11" v:mID="6365" v:groupContext="shape">
				<title>Sheet.6365</title>
				<g id="shadow6365-12" v:groupContext="shadow" v:shadowOffsetX="2.12132" v:shadowOffsetY="-2.12132" v:shadowType="1"
						transform="matrix(1,0,0,1,2.12132,2.12132)" class="st2">
					<path d="M47.81 425.2 L65.2 415.2 L65.2 344.14 L17.39 316.54 L0 326.53 L0 397.38 L47.81 425.2 Z" class="st3"/>
				</g>
				<path d="M47.81 425.2 L65.2 415.2 L65.2 344.14 L17.39 316.54 L0 326.53 L0 397.38 L47.81 425.2 Z" class="st5"/>
			</g>
			<g id="shape6366-22" v:mID="6366" v:groupContext="shape" transform="translate(47.811,0)">
				<title>Sheet.6366</title>
				<path d="M0 354.35 L0 425.2 L17.39 415.2 L17.39 344.14 L0 354.35 Z" class="st6"/>
			</g>
			<g id="shape6367-30" v:mID="6367" v:groupContext="shape" transform="translate(0,-70.8472)">
				<title>Sheet.6367</title>
				<path d="M0 397.38 L47.81 425.2 L65.2 414.98 L17.39 387.38 L0 397.38 Z" class="st7"/>
			</g>
			<g id="shape6368-36" v:mID="6368" v:groupContext="shape">
				<title>Sheet.6368</title>
				<path d="M0 397.38 L47.81 425.2 L47.81 354.35 L0 326.53 L0 397.38 Z" class="st8"/>
			</g>
			<g id="shape6369-43" v:mID="6369" v:groupContext="shape" transform="translate(4.34646,-5.21575)">
				<title>Sheet.6369</title>
				<path d="M0 334.36 L43.46 359.57 L56.5 352.18" class="st9"/>
				<path d="M43.46 359.57 L43.46 425.2" class="st9"/>
				<path d="M0 346.09 L43.46 371.3" class="st9"/>
				<path d="M0 357.83 L43.46 383.04" class="st9"/>
				<path d="M0 369.56 L43.46 394.77" class="st9"/>
				<path d="M0 381.73 L43.46 406.94" class="st9"/>
				<path d="M0 393.47 L43.46 418.68" class="st9"/>
				<path d="M31.73 399.99 L31.73 411.72" class="st9"/>
				<path d="M7.82 386.51 L7.82 398.25" class="st9"/>
				<path d="M19.56 380.86 L19.56 393.03" class="st9"/>
				<path d="M31.73 376.52 L31.73 387.82" class="st9"/>
				<path d="M7.82 362.61 L7.82 373.91" class="st9"/>
				<path d="M19.56 357.39 L19.56 369.13" class="st9"/>
				<path d="M7.82 339.14 L7.82 350.44" class="st9"/>
			</g>
			<g id="shape6370-75" v:mID="6370" v:groupContext="shape">
				<title>Sheet.6370</title>
				<path d="M0 397.38 L47.81 425.2 L65.2 415.2 L65.2 344.14 L17.39 316.54 L0 326.53 L0 397.38" class="st10"/>
			</g>
		</g>
		<g id="shape410-80" v:mID="410" v:groupContext="shape" transform="translate(14.1732,-70.8661)">
			<title>Sheet.410</title>
			<ellipse cx="145.276" cy="278.601" rx="145.276" ry="146.596" class="st11"/>
		</g>
		<g id="group1321-82" transform="translate(18,-321.743)" v:mID="1321" v:groupContext="group">
			<title>Health Monitor</title>
			<g id="group1322-83" transform="translate(1.1062,-56.4164)" v:mID="1322" v:groupContext="group">
				<title>Sheet.1322</title>
				<g id="shape1323-84" v:mID="1323" v:groupContext="shape" transform="translate(12.5831,-1.13687E-13)">
					<title>Sheet.1323</title>
					<g id="shadow1323-85" v:groupContext="shadow" v:shadowOffsetX="2.12132" v:shadowOffsetY="-2.12132"
							v:shadowType="1" transform="matrix(1,0,0,1,2.12132,2.12132)" class="st2">
						<path d="M13.55 417.32 C8.99 416.76 4.56 418.14 1.11 420.77 C0.55 421.05 0.28 421.6 0.14 422.29 C0 423.54
									 0.83 424.64 2.07 424.78 C2.77 424.92 3.32 424.64 3.73 424.37 C6.22 422.29 9.54 421.33 13 421.74
									 C15.49 422.02 17.7 422.98 19.5 424.51 C19.77 424.78 20.19 424.92 20.6 425.06 C21.85 425.2 22.95
									 424.37 23.09 423.12 C23.23 422.29 22.82 421.6 22.26 421.19 C19.91 419.11 16.87 417.73 13.55
									 417.32 Z" class="st12"/>
					</g>
					<path d="M13.55 417.32 C8.99 416.76 4.56 418.14 1.11 420.77 C0.55 421.05 0.28 421.6 0.14 422.29 C0 423.54 0.83
								 424.64 2.07 424.78 C2.77 424.92 3.32 424.64 3.73 424.37 C6.22 422.29 9.54 421.33 13 421.74 C15.49
								 422.02 17.7 422.98 19.5 424.51 C19.77 424.78 20.19 424.92 20.6 425.06 C21.85 425.2 22.95 424.37
								 23.09 423.12 C23.23 422.29 22.82 421.6 22.26 421.19 C19.91 419.11 16.87 417.73 13.55 417.32 Z"
							class="st13"/>
				</g>
				<g id="shape1324-91" v:mID="1324" v:groupContext="shape" transform="translate(6.36067,-7.74342)">
					<title>Sheet.1324</title>
					<g id="shadow1324-92" v:groupContext="shadow" v:shadowOffsetX="2.12132" v:shadowOffsetY="-2.12132"
							v:shadowType="1" transform="matrix(1,0,0,1,2.12132,2.12132)" class="st2">
						<path d="M21.02 415.1 C13.55 414.13 6.36 416.49 0.97 420.77 C0.55 421.19 0.14 421.6 0.14 422.29 C0 423.54
									 0.83 424.64 2.07 424.78 C2.77 424.92 3.32 424.64 3.73 424.23 C8.3 420.63 14.24 418.7 20.6 419.53
									 C25.03 420.08 29.04 421.88 32.22 424.51 C32.49 424.78 32.91 424.92 33.32 425.06 C34.57 425.2
									 35.68 424.37 35.81 423.12 C35.95 422.29 35.54 421.6 34.98 421.19 C31.11 417.87 26.27 415.66
									 21.02 415.1 Z" class="st12"/>
					</g>
					<path d="M21.02 415.1 C13.55 414.13 6.36 416.49 0.97 420.77 C0.55 421.19 0.14 421.6 0.14 422.29 C0 423.54 0.83
								 424.64 2.07 424.78 C2.77 424.92 3.32 424.64 3.73 424.23 C8.3 420.63 14.24 418.7 20.6 419.53 C25.03
								 420.08 29.04 421.88 32.22 424.51 C32.49 424.78 32.91 424.92 33.32 425.06 C34.57 425.2 35.68 424.37
								 35.81 423.12 C35.95 422.29 35.54 421.6 34.98 421.19 C31.11 417.87 26.27 415.66 21.02 415.1 Z"
							class="st13"/>
				</g>
				<g id="shape1325-97" v:mID="1325" v:groupContext="shape" transform="translate(0,-15.6251)">
					<title>Sheet.1325</title>
					<g id="shadow1325-98" v:groupContext="shadow" v:shadowOffsetX="2.12132" v:shadowOffsetY="-2.12132"
							v:shadowType="1" transform="matrix(1,0,0,1,2.12132,2.12132)" class="st2">
						<path d="M47.71 421.19 C47.71 421.05 47.71 421.05 47.71 421.19 C42.31 416.76 35.81 413.86 28.62 413.03 C18.39
									 411.78 8.71 414.83 1.11 420.77 C0.55 421.19 0.28 421.6 0.14 422.29 C0 423.54 0.83 424.64 2.07
									 424.78 C2.63 424.92 3.18 424.64 3.73 424.37 C10.37 419.11 18.94 416.35 28.07 417.45 C34.43 418.28
									 40.24 420.91 44.94 424.64 C45.22 424.92 45.63 425.06 46.05 425.06 C47.29 425.2 48.4 424.37 48.53
									 423.12 C48.53 422.29 48.26 421.6 47.71 421.19 Z" class="st12"/>
					</g>
					<path d="M47.71 421.19 C47.71 421.05 47.71 421.05 47.71 421.19 C42.31 416.76 35.81 413.86 28.62 413.03 C18.39
								 411.78 8.71 414.83 1.11 420.77 C0.55 421.19 0.28 421.6 0.14 422.29 C0 423.54 0.83 424.64 2.07 424.78
								 C2.63 424.92 3.18 424.64 3.73 424.37 C10.37 419.11 18.94 416.35 28.07 417.45 C34.43 418.28 40.24
								 420.91 44.94 424.64 C45.22 424.92 45.63 425.06 46.05 425.06 C47.29 425.2 48.4 424.37 48.53 423.12
								 C48.53 422.29 48.26 421.6 47.71 421.19 Z" class="st13"/>
				</g>
			</g>
			<g id="shape1326-103" v:mID="1326" v:groupContext="shape">
				<title>Sheet.1326</title>
				<g id="shadow1326-104" v:groupContext="shadow" v:shadowOffsetX="2.12132" v:shadowOffsetY="-2.12132"
						v:shadowType="1" transform="matrix(1,0,0,1,2.12132,2.12132)" class="st2">
					<path d="M45.63 388.97 C40.93 384.68 33.32 384.68 28.62 388.97 L25.44 391.87 L22.26 388.97 C17.56 384.68 9.96
								 384.68 5.25 388.97 C0 393.81 0 401.69 5.25 406.53 L25.58 425.2 L45.91 406.53 C51.02 401.69 51.02
								 393.81 45.63 388.97 Z" class="st12"/>
				</g>
				<path d="M45.63 388.97 C40.93 384.68 33.32 384.68 28.62 388.97 L25.44 391.87 L22.26 388.97 C17.56 384.68 9.96 384.68
							 5.25 388.97 C0 393.81 0 401.69 5.25 406.53 L25.58 425.2 L45.91 406.53 C51.02 401.69 51.02 393.81 45.63
							 388.97 Z" class="st13"/>
			</g>
		</g>
		<g id="group1355-109" transform="translate(19.6272,-111.34)" v:mID="1355" v:groupContext="group">
			<title>Smart Factories</title>
			<g id="group1356-110" transform="translate(4.53864,-47.9962)" v:mID="1356" v:groupContext="group">
				<title>Sheet.1356</title>
				<g id="shape1357-111" v:mID="1357" v:groupContext="shape" transform="translate(10.3254,1.13687E-13)">
					<title>Sheet.1357</title>
					<g id="shadow1357-112" v:groupContext="shadow" v:shadowOffsetX="2.12132" v:shadowOffsetY="-2.12132"
							v:shadowType="1" transform="matrix(1,0,0,1,2.12132,2.12132)" class="st2">
						<path d="M11.12 418.73 C7.38 418.28 3.74 419.41 0.91 421.57 C0.45 421.79 0.23 422.25 0.11 422.81 C0 423.84
									 0.68 424.74 1.7 424.86 C2.27 424.97 2.72 424.74 3.06 424.52 C5.11 422.81 7.83 422.02 10.67 422.36
									 C12.71 422.59 14.52 423.38 16 424.63 C16.23 424.86 16.57 424.97 16.91 425.08 C17.93 425.2 18.84
									 424.52 18.95 423.49 C19.06 422.81 18.72 422.25 18.27 421.91 C16.34 420.09 13.84 418.96 11.12
									 418.73 Z" class="st12"/>
					</g>
					<path d="M11.12 418.73 C7.38 418.28 3.74 419.41 0.91 421.57 C0.45 421.79 0.23 422.25 0.11 422.81 C0 423.84 0.68
								 424.74 1.7 424.86 C2.27 424.97 2.72 424.74 3.06 424.52 C5.11 422.81 7.83 422.02 10.67 422.36 C12.71
								 422.59 14.52 423.38 16 424.63 C16.23 424.86 16.57 424.97 16.91 425.08 C17.93 425.2 18.84 424.52
								 18.95 423.49 C19.06 422.81 18.72 422.25 18.27 421.91 C16.34 420.09 13.84 418.96 11.12 418.73 Z"
							class="st13"/>
				</g>
				<g id="shape1358-117" v:mID="1358" v:groupContext="shape" transform="translate(5.21944,-6.46757)">
					<title>Sheet.1358</title>
					<g id="shadow1358-118" v:groupContext="shadow" v:shadowOffsetX="2.12132" v:shadowOffsetY="-2.12132"
							v:shadowType="1" transform="matrix(1,0,0,1,2.12132,2.12132)" class="st2">
						<path d="M17.25 416.91 C11.12 416.12 5.22 418.05 0.79 421.57 C0.45 421.91 0.11 422.25 0.11 422.81 C0 423.84
									 0.68 424.74 1.7 424.86 C2.27 424.97 2.72 424.74 3.06 424.4 C6.81 421.45 11.69 419.86 16.91 420.54
									 C20.54 421 23.83 422.47 26.44 424.63 C26.66 424.86 27 424.97 27.35 425.08 C28.37 425.2 29.27
									 424.52 29.39 423.49 C29.5 422.81 29.16 422.25 28.71 421.91 C25.53 419.18 21.67 417.48 17.25
									 416.91 Z" class="st12"/>
					</g>
					<path d="M17.25 416.91 C11.12 416.12 5.22 418.05 0.79 421.57 C0.45 421.91 0.11 422.25 0.11 422.81 C0 423.84 0.68
								 424.74 1.7 424.86 C2.27 424.97 2.72 424.74 3.06 424.4 C6.81 421.45 11.69 419.86 16.91 420.54 C20.54
								 421 23.83 422.47 26.44 424.63 C26.66 424.86 27 424.97 27.35 425.08 C28.37 425.2 29.27 424.52 29.39
								 423.49 C29.5 422.81 29.16 422.25 28.71 421.91 C25.53 419.18 21.67 417.48 17.25 416.91 Z"
							class="st13"/>
				</g>
				<g id="shape1359-123" v:mID="1359" v:groupContext="shape" transform="translate(0,-13.0486)">
					<title>Sheet.1359</title>
					<g id="shadow1359-124" v:groupContext="shadow" v:shadowOffsetX="2.12132" v:shadowOffsetY="-2.12132"
							v:shadowType="1" transform="matrix(1,0,0,1,2.12132,2.12132)" class="st2">
						<path d="M39.15 422.02 C39.15 422.02 39.15 421.91 39.15 422.02 C34.72 418.39 29.39 416.01 23.49 415.21 C15.09
									 414.19 7.15 416.69 0.91 421.57 C0.45 421.91 0.23 422.25 0.11 422.81 C0 423.84 0.68 424.74 1.7
									 424.86 C2.16 424.97 2.61 424.74 3.06 424.52 C8.51 420.2 15.54 417.94 23.03 418.84 C28.25 419.52
									 33.02 421.68 36.88 424.74 C37.1 424.97 37.44 425.08 37.78 425.08 C38.81 425.2 39.71 424.52 39.83
									 423.49 C39.83 422.93 39.6 422.36 39.15 422.02 Z" class="st12"/>
					</g>
					<path d="M39.15 422.02 C39.15 422.02 39.15 421.91 39.15 422.02 C34.72 418.39 29.39 416.01 23.49 415.21 C15.09
								 414.19 7.15 416.69 0.91 421.57 C0.45 421.91 0.23 422.25 0.11 422.81 C0 423.84 0.68 424.74 1.7 424.86
								 C2.16 424.97 2.61 424.74 3.06 424.52 C8.51 420.2 15.54 417.94 23.03 418.84 C28.25 419.52 33.02 421.68
								 36.88 424.74 C37.1 424.97 37.44 425.08 37.78 425.08 C38.81 425.2 39.71 424.52 39.83 423.49 C39.83
								 422.93 39.6 422.36 39.15 422.02 Z" class="st13"/>
				</g>
			</g>
			<g id="shape1360-129" v:mID="1360" v:groupContext="shape">
				<title>Sheet.1360</title>
				<g id="shadow1360-130" v:groupContext="shadow" v:shadowOffsetX="2.12132" v:shadowOffsetY="-2.12132"
						v:shadowType="1" transform="matrix(1,0,0,1,2.12132,2.12132)" class="st2">
					<path d="M45.5 423.15 L45.5 400.23 L42.78 400.23 L42.78 386.05 C42.78 384.69 41.76 383.67 40.39 383.67 C39.03
								 383.67 38.01 384.69 38.01 386.05 L38.01 400.23 L33.93 400.23 L33.93 394.56 L25.3 400.23 L24.17 400.23
								 L24.17 394.56 L15.54 400.23 L14.98 400.23 L14.98 394.56 L6.35 400.23 L2.16 400.23 L2.16 423.15 L0
								 423.15 L0 425.2 L47.77 425.2 L47.77 423.15 L45.5 423.15 ZM16.57 417.37 L10.44 417.37 L10.44 413.62
								 L16.57 413.62 L16.57 417.37 ZM16.57 410.22 L10.44 410.22 L10.44 406.47 L16.57 406.47 L16.57 410.22
								 ZM26.89 417.37 L20.76 417.37 L20.76 413.62 L26.89 413.62 L26.89 417.37 ZM26.89 410.22 L20.76 410.22
								 L20.76 406.47 L26.89 406.47 L26.89 410.22 ZM37.1 417.37 L30.98 417.37 L30.98 413.62 L37.1 413.62
								 L37.1 417.37 ZM37.1 410.22 L30.98 410.22 L30.98 406.47 L37.1 406.47 L37.1 410.22 Z" class="st12"/>
				</g>
				<path d="M45.5 423.15 L45.5 400.23 L42.78 400.23 L42.78 386.05 C42.78 384.69 41.76 383.67 40.39 383.67 C39.03 383.67
							 38.01 384.69 38.01 386.05 L38.01 400.23 L33.93 400.23 L33.93 394.56 L25.3 400.23 L24.17 400.23 L24.17
							 394.56 L15.54 400.23 L14.98 400.23 L14.98 394.56 L6.35 400.23 L2.16 400.23 L2.16 423.15 L0 423.15 L0
							 425.2 L47.77 425.2 L47.77 423.15 L45.5 423.15 ZM16.57 417.37 L10.44 417.37 L10.44 413.62 L16.57 413.62
							 L16.57 417.37 ZM16.57 410.22 L10.44 410.22 L10.44 406.47 L16.57 406.47 L16.57 410.22 ZM26.89 417.37
							 L20.76 417.37 L20.76 413.62 L26.89 413.62 L26.89 417.37 ZM26.89 410.22 L20.76 410.22 L20.76 406.47 L26.89
							 406.47 L26.89 410.22 ZM37.1 417.37 L30.98 417.37 L30.98 413.62 L37.1 413.62 L37.1 417.37 ZM37.1 410.22
							 L30.98 410.22 L30.98 406.47 L37.1 406.47 L37.1 410.22 Z" class="st13"/>
			</g>
		</g>
		<g id="group1361-135" transform="translate(18,-18)" v:mID="1361" v:groupContext="group">
			<title>Smart Sensors #1</title>
			<g id="group1362-136" transform="translate(9.32359,-44.4664)" v:mID="1362" v:groupContext="group">
				<title>Sheet.1362</title>
				<g id="shape1363-137" v:mID="1363" v:groupContext="shape" transform="translate(9.32359,0)">
					<title>Sheet.1363</title>
					<g id="shadow1363-138" v:groupContext="shadow" v:shadowOffsetX="2.12132" v:shadowOffsetY="-2.12132"
							v:shadowType="1" transform="matrix(1,0,0,1,2.12132,2.12132)" class="st2">
						<path d="M10.04 419.36 C6.66 418.95 3.38 419.97 0.82 421.92 C0.41 422.12 0.2 422.53 0.1 423.05 C0 423.97
									 0.61 424.79 1.54 424.89 C2.05 424.99 2.46 424.79 2.77 424.58 C4.61 423.05 7.07 422.33 9.63 422.64
									 C11.48 422.84 13.11 423.56 14.45 424.68 C14.65 424.89 14.96 424.99 15.27 425.09 C16.19 425.2
									 17.01 424.58 17.11 423.66 C17.21 423.05 16.91 422.53 16.5 422.23 C14.65 420.69 12.5 419.66 10.04
									 419.36 Z" class="st12"/>
					</g>
					<path d="M10.04 419.36 C6.66 418.95 3.38 419.97 0.82 421.92 C0.41 422.12 0.2 422.53 0.1 423.05 C0 423.97 0.61
								 424.79 1.54 424.89 C2.05 424.99 2.46 424.79 2.77 424.58 C4.61 423.05 7.07 422.33 9.63 422.64 C11.48
								 422.84 13.11 423.56 14.45 424.68 C14.65 424.89 14.96 424.99 15.27 425.09 C16.19 425.2 17.01 424.58
								 17.11 423.66 C17.21 423.05 16.91 422.53 16.5 422.23 C14.65 420.69 12.5 419.66 10.04 419.36 Z"
							class="st13"/>
				</g>
				<g id="shape1364-143" v:mID="1364" v:groupContext="shape" transform="translate(4.61057,-5.84005)">
					<title>Sheet.1364</title>
					<g id="shadow1364-144" v:groupContext="shadow" v:shadowOffsetX="2.12132" v:shadowOffsetY="-2.12132"
							v:shadowType="1" transform="matrix(1,0,0,1,2.12132,2.12132)" class="st2">
						<path d="M15.57 417.72 C10.04 417 4.71 418.74 0.72 421.92 C0.41 422.23 0.1 422.53 0.1 423.05 C0 423.97 0.61
									 424.79 1.54 424.89 C2.05 424.99 2.46 424.79 2.77 424.48 C6.15 421.82 10.55 420.38 15.27 421
									 C18.54 421.41 21.52 422.74 23.87 424.68 C24.08 424.89 24.38 424.99 24.69 425.09 C25.61 425.2
									 26.43 424.58 26.54 423.66 C26.64 423.05 26.33 422.53 25.92 422.23 C23.05 419.87 19.57 418.23
									 15.57 417.72 Z" class="st12"/>
					</g>
					<path d="M15.57 417.72 C10.04 417 4.71 418.74 0.72 421.92 C0.41 422.23 0.1 422.53 0.1 423.05 C0 423.97 0.61 424.79
								 1.54 424.89 C2.05 424.99 2.46 424.79 2.77 424.48 C6.15 421.82 10.55 420.38 15.27 421 C18.54 421.41
								 21.52 422.74 23.87 424.68 C24.08 424.89 24.38 424.99 24.69 425.09 C25.61 425.2 26.43 424.58 26.54
								 423.66 C26.64 423.05 26.33 422.53 25.92 422.23 C23.05 419.87 19.57 418.23 15.57 417.72 Z"
							class="st13"/>
				</g>
				<g id="shape1365-149" v:mID="1365" v:groupContext="shape" transform="translate(0,-11.7826)">
					<title>Sheet.1365</title>
					<g id="shadow1365-150" v:groupContext="shadow" v:shadowOffsetX="2.12132" v:shadowOffsetY="-2.12132"
							v:shadowType="1" transform="matrix(1,0,0,1,2.12132,2.12132)" class="st2">
						<path d="M35.35 422.33 C35.25 422.33 35.25 422.33 35.35 422.33 C31.35 419.05 26.54 416.9 21.21 416.18 C13.63
									 415.26 6.45 417.51 0.82 421.92 C0.41 422.23 0.2 422.53 0.1 423.05 C0 423.97 0.61 424.79 1.54
									 424.89 C1.95 424.99 2.36 424.79 2.77 424.58 C7.68 420.69 14.04 418.64 20.8 419.46 C25.51 420.07
									 29.82 422.02 33.3 424.79 C33.5 424.99 33.81 425.09 34.12 425.09 C35.04 425.2 35.86 424.58 35.96
									 423.66 C35.86 423.25 35.66 422.74 35.35 422.33 Z" class="st12"/>
					</g>
					<path d="M35.35 422.33 C35.25 422.33 35.25 422.33 35.35 422.33 C31.35 419.05 26.54 416.9 21.21 416.18 C13.63
								 415.26 6.45 417.51 0.82 421.92 C0.41 422.23 0.2 422.53 0.1 423.05 C0 423.97 0.61 424.79 1.54 424.89
								 C1.95 424.99 2.36 424.79 2.77 424.58 C7.68 420.69 14.04 418.64 20.8 419.46 C25.51 420.07 29.82 422.02
								 33.3 424.79 C33.5 424.99 33.81 425.09 34.12 425.09 C35.04 425.2 35.86 424.58 35.96 423.66 C35.86
								 423.25 35.66 422.74 35.35 422.33 Z" class="st13"/>
				</g>
			</g>
			<g id="shape1366-155" v:mID="1366" v:groupContext="shape">
				<title>Sheet.1366</title>
				<g id="shadow1366-156" v:groupContext="shadow" v:shadowOffsetX="2.12132" v:shadowOffsetY="-2.12132"
						v:shadowType="1" transform="matrix(1,0,0,1,2.12132,2.12132)" class="st2">
					<path d="M31.25 419.36 L28.59 419.36 L21.93 419.36 C22.03 418.74 22.13 418.13 22.13 417.41 C22.13 412.49 18.13
								 408.39 13.11 408.39 C8.2 408.39 4.1 412.39 4.1 417.41 C4.1 418.02 4.2 418.74 4.3 419.36 C1.95 419.15
								 0 417.1 0 414.64 L0 412.29 C0 410.55 0.61 408.6 1.74 406.96 C6.86 398.97 15.88 392.1 24.9 390.98
								 C28.79 390.46 33.71 390.16 38.11 390.98 C43.65 392 47.74 396 49.49 400.81 C50.92 404.81 51.02 409.11
								 50.92 413.62 C50.92 415.26 50.31 417.31 48.87 418.43 C48.87 418.02 48.97 417.72 48.97 417.31 C48.97
								 412.39 44.98 408.29 39.96 408.29 C35.04 408.29 30.94 412.29 30.94 417.31 C31.04 417.92 31.15 418.64
								 31.25 419.36 ZM13.11 409.62 C17.42 409.62 20.9 413.11 20.9 417.41 C20.9 421.71 17.42 425.2 13.11
								 425.2 C8.81 425.2 5.33 421.71 5.33 417.41 C5.33 413.11 8.81 409.62 13.11 409.62 ZM40.06 413.72 C42.01
								 413.72 43.65 415.36 43.65 417.31 C43.65 419.25 42.01 420.89 40.06 420.89 C38.11 420.89 36.47 419.25
								 36.47 417.31 C36.47 415.36 38.11 413.72 40.06 413.72 ZM13.11 413.82 C15.06 413.82 16.7 415.46 16.7
								 417.41 C16.7 419.36 15.06 421 13.11 421 C11.17 421 9.53 419.36 9.53 417.41 C9.53 415.46 11.17 413.82
								 13.11 413.82 ZM40.06 409.52 C44.36 409.52 47.85 413 47.85 417.31 C47.85 421.61 44.36 425.09 40.06
								 425.09 C35.76 425.09 32.27 421.61 32.27 417.31 C32.27 413 35.76 409.52 40.06 409.52 ZM12.91 401.43
								 C12.7 401.73 12.5 402.14 12.5 402.55 C12.4 403.78 13.22 404.91 14.34 404.91 C22.03 404.91 29.82
								 404.91 37.5 404.91 C38.73 404.91 39.65 403.89 39.65 402.55 C39.45 396 33.71 394.05 29 394.05 C22.95
								 394.25 16.19 396.82 12.91 401.43 Z" class="st12"/>
				</g>
				<path d="M31.25 419.36 L28.59 419.36 L21.93 419.36 C22.03 418.74 22.13 418.13 22.13 417.41 C22.13 412.49 18.13 408.39
							 13.11 408.39 C8.2 408.39 4.1 412.39 4.1 417.41 C4.1 418.02 4.2 418.74 4.3 419.36 C1.95 419.15 0 417.1
							 0 414.64 L0 412.29 C0 410.55 0.61 408.6 1.74 406.96 C6.86 398.97 15.88 392.1 24.9 390.98 C28.79 390.46
							 33.71 390.16 38.11 390.98 C43.65 392 47.74 396 49.49 400.81 C50.92 404.81 51.02 409.11 50.92 413.62
							 C50.92 415.26 50.31 417.31 48.87 418.43 C48.87 418.02 48.97 417.72 48.97 417.31 C48.97 412.39 44.98
							 408.29 39.96 408.29 C35.04 408.29 30.94 412.29 30.94 417.31 C31.04 417.92 31.15 418.64 31.25 419.36
							 ZM13.11 409.62 C17.42 409.62 20.9 413.11 20.9 417.41 C20.9 421.71 17.42 425.2 13.11 425.2 C8.81 425.2
							 5.33 421.71 5.33 417.41 C5.33 413.11 8.81 409.62 13.11 409.62 ZM40.06 413.72 C42.01 413.72 43.65 415.36
							 43.65 417.31 C43.65 419.25 42.01 420.89 40.06 420.89 C38.11 420.89 36.47 419.25 36.47 417.31 C36.47
							 415.36 38.11 413.72 40.06 413.72 ZM13.11 413.82 C15.06 413.82 16.7 415.46 16.7 417.41 C16.7 419.36 15.06
							 421 13.11 421 C11.17 421 9.53 419.36 9.53 417.41 C9.53 415.46 11.17 413.82 13.11 413.82 ZM40.06 409.52
							 C44.36 409.52 47.85 413 47.85 417.31 C47.85 421.61 44.36 425.09 40.06 425.09 C35.76 425.09 32.27 421.61
							 32.27 417.31 C32.27 413 35.76 409.52 40.06 409.52 ZM12.91 401.43 C12.7 401.73 12.5 402.14 12.5 402.55
							 C12.4 403.78 13.22 404.91 14.34 404.91 C22.03 404.91 29.82 404.91 37.5 404.91 C38.73 404.91 39.65 403.89
							 39.65 402.55 C39.45 396 33.71 394.05 29 394.05 C22.95 394.25 16.19 396.82 12.91 401.43 Z" class="st13"/>
			</g>
		</g>
		<g id="group1367-161" transform="translate(18,-210.544)" v:mID="1367" v:groupContext="group">
			<title>Smart Sensors</title>
			<g id="group1368-162" transform="translate(4.22093,-57.7275)" v:mID="1368" v:groupContext="group">
				<title>Sheet.1368</title>
				<g id="shape1369-163" v:mID="1369" v:groupContext="shape" transform="translate(11.2972,0)">
					<title>Sheet.1369</title>
					<g id="shadow1369-164" v:groupContext="shadow" v:shadowOffsetX="2.12132" v:shadowOffsetY="-2.12132"
							v:shadowType="1" transform="matrix(1,0,0,1,2.12132,2.12132)" class="st2">
						<path d="M12.17 418.12 C8.07 417.62 4.1 418.87 0.99 421.22 C0.5 421.47 0.25 421.97 0.12 422.59 C0 423.71
									 0.74 424.7 1.86 424.82 C2.48 424.95 2.98 424.7 3.35 424.45 C5.59 422.59 8.57 421.72 11.67 422.09
									 C13.9 422.34 15.89 423.21 17.5 424.58 C17.75 424.82 18.13 424.95 18.5 425.07 C19.61 425.2 20.61
									 424.45 20.73 423.33 C20.86 422.59 20.48 421.97 19.99 421.6 C17.75 419.73 15.15 418.49 12.17
									 418.12 Z" class="st12"/>
					</g>
					<path d="M12.17 418.12 C8.07 417.62 4.1 418.87 0.99 421.22 C0.5 421.47 0.25 421.97 0.12 422.59 C0 423.71 0.74
								 424.7 1.86 424.82 C2.48 424.95 2.98 424.7 3.35 424.45 C5.59 422.59 8.57 421.72 11.67 422.09 C13.9
								 422.34 15.89 423.21 17.5 424.58 C17.75 424.82 18.13 424.95 18.5 425.07 C19.61 425.2 20.61 424.45
								 20.73 423.33 C20.86 422.59 20.48 421.97 19.99 421.6 C17.75 419.73 15.15 418.49 12.17 418.12 Z"
							class="st13"/>
				</g>
				<g id="shape1370-169" v:mID="1370" v:groupContext="shape" transform="translate(5.58653,-7.07627)">
					<title>Sheet.1370</title>
					<g id="shadow1370-170" v:groupContext="shadow" v:shadowOffsetX="2.12132" v:shadowOffsetY="-2.12132"
							v:shadowType="1" transform="matrix(1,0,0,1,2.12132,2.12132)" class="st2">
						<path d="M18.87 416.13 C12.17 415.27 5.71 417.38 0.87 421.22 C0.5 421.6 0.12 421.97 0.12 422.59 C0 423.71
									 0.74 424.7 1.86 424.82 C2.48 424.95 2.98 424.7 3.35 424.33 C7.45 421.1 12.79 419.36 18.5 420.11
									 C22.47 420.6 26.07 422.22 28.93 424.58 C29.17 424.82 29.55 424.95 29.92 425.07 C31.04 425.2
									 32.03 424.45 32.15 423.33 C32.28 422.59 31.91 421.97 31.41 421.6 C27.93 418.74 23.71 416.75
									 18.87 416.13 Z" class="st12"/>
					</g>
					<path d="M18.87 416.13 C12.17 415.27 5.71 417.38 0.87 421.22 C0.5 421.6 0.12 421.97 0.12 422.59 C0 423.71 0.74
								 424.7 1.86 424.82 C2.48 424.95 2.98 424.7 3.35 424.33 C7.45 421.1 12.79 419.36 18.5 420.11 C22.47
								 420.6 26.07 422.22 28.93 424.58 C29.17 424.82 29.55 424.95 29.92 425.07 C31.04 425.2 32.03 424.45
								 32.15 423.33 C32.28 422.59 31.91 421.97 31.41 421.6 C27.93 418.74 23.71 416.75 18.87 416.13 Z"
							class="st13"/>
				</g>
				<g id="shape1371-175" v:mID="1371" v:groupContext="shape" transform="translate(0,-14.2767)">
					<title>Sheet.1371</title>
					<g id="shadow1371-176" v:groupContext="shadow" v:shadowOffsetX="2.12132" v:shadowOffsetY="-2.12132"
							v:shadowType="1" transform="matrix(1,0,0,1,2.12132,2.12132)" class="st2">
						<path d="M42.83 421.72 C42.71 421.72 42.71 421.72 42.83 421.72 C37.99 417.75 32.15 415.14 25.7 414.27 C16.51
									 413.15 7.82 415.89 0.99 421.22 C0.5 421.6 0.25 421.97 0.12 422.59 C0 423.71 0.74 424.7 1.86
									 424.82 C2.36 424.95 2.86 424.7 3.35 424.45 C9.31 419.73 17.01 417.25 25.2 418.24 C30.91 418.99
									 36.13 421.35 40.35 424.7 C40.6 424.95 40.97 425.07 41.34 425.07 C42.46 425.2 43.45 424.45 43.57
									 423.33 C43.57 422.84 43.2 422.22 42.83 421.72 Z" class="st12"/>
					</g>
					<path d="M42.83 421.72 C42.71 421.72 42.71 421.72 42.83 421.72 C37.99 417.75 32.15 415.14 25.7 414.27 C16.51
								 413.15 7.82 415.89 0.99 421.22 C0.5 421.6 0.25 421.97 0.12 422.59 C0 423.71 0.74 424.7 1.86 424.82
								 C2.36 424.95 2.86 424.7 3.35 424.45 C9.31 419.73 17.01 417.25 25.2 418.24 C30.91 418.99 36.13 421.35
								 40.35 424.7 C40.6 424.95 40.97 425.07 41.34 425.07 C42.46 425.2 43.45 424.45 43.57 423.33 C43.57
								 422.84 43.2 422.22 42.83 421.72 Z" class="st13"/>
				</g>
			</g>
			<g id="group1372-181" v:mID="1372" v:groupContext="group">
				<title>Sheet.1372</title>
				<g id="shape1373-182" v:mID="1373" v:groupContext="shape" transform="translate(42.7059,-13.0352)">
					<title>Sheet.1373</title>
					<g id="shadow1373-183" v:groupContext="shadow" v:shadowOffsetX="2.12132" v:shadowOffsetY="-2.12132"
							v:shadowType="1" transform="matrix(1,0,0,1,2.12132,2.12132)" class="st2">
						<path d="M3.72 403.6 L0 403.6 L0 408.93 L4.72 408.93 L4.72 425.2 L8.32 425.2 L8.32 408.19 C8.32 405.58 6.21
									 403.6 3.72 403.6 Z" class="st12"/>
					</g>
					<path d="M3.72 403.6 L0 403.6 L0 408.93 L4.72 408.93 L4.72 425.2 L8.32 425.2 L8.32 408.19 C8.32 405.58 6.21 403.6
								 3.72 403.6 Z" class="st13"/>
				</g>
				<g id="shape1374-188" v:mID="1374" v:groupContext="shape" transform="translate(16.0147,-43.0783)">
					<title>Sheet.1374</title>
					<g id="shadow1374-189" v:groupContext="shadow" v:shadowOffsetX="2.12132" v:shadowOffsetY="-2.12132"
							v:shadowType="1" transform="matrix(1,0,0,1,2.12132,2.12132)" class="st2">
						<path d="M20.24 425.2 L20.24 423.46 C20.24 420.48 17.88 418.12 14.9 418.12 L5.34 418.12 C2.36 418.12 0 420.48
									 0 423.46 L0 425.2 L20.24 425.2 Z" class="st12"/>
					</g>
					<path d="M20.24 425.2 L20.24 423.46 C20.24 420.48 17.88 418.12 14.9 418.12 L5.34 418.12 C2.36 418.12 0 420.48
								 0 423.46 L0 425.2 L20.24 425.2 Z" class="st13"/>
				</g>
				<g id="shape1375-194" v:mID="1375" v:groupContext="shape" transform="translate(9.43503,0)">
					<title>Sheet.1375</title>
					<g id="shadow1375-195" v:groupContext="shadow" v:shadowOffsetX="2.12132" v:shadowOffsetY="-2.12132"
							v:shadowType="1" transform="matrix(1,0,0,1,2.12132,2.12132)" class="st2">
						<path d="M0 415.64 L0 416.38 C0 421.22 3.97 425.2 8.81 425.2 L24.46 425.2 C29.3 425.2 33.27 421.22 33.27
									 416.38 L33.27 415.64 L0 415.64 ZM16.64 422.84 C15.27 422.84 14.15 421.72 14.15 420.36 C14.15
									 418.99 15.27 417.87 16.64 417.87 C18 417.87 19.12 418.99 19.12 420.36 C19.12 421.72 18 422.84
									 16.64 422.84 Z" class="st12"/>
					</g>
					<path d="M0 415.64 L0 416.38 C0 421.22 3.97 425.2 8.81 425.2 L24.46 425.2 C29.3 425.2 33.27 421.22 33.27 416.38
								 L33.27 415.64 L0 415.64 ZM16.64 422.84 C15.27 422.84 14.15 421.72 14.15 420.36 C14.15 418.99 15.27
								 417.87 16.64 417.87 C18 417.87 19.12 418.99 19.12 420.36 C19.12 421.72 18 422.84 16.64 422.84 Z"
							class="st13"/>
				</g>
				<g id="shape1376-200" v:mID="1376" v:groupContext="shape" transform="translate(-2.51799E-13,-11.9179)">
					<title>Sheet.1376</title>
					<g id="shadow1376-201" v:groupContext="shadow" v:shadowOffsetX="2.12132" v:shadowOffsetY="-2.12132"
							v:shadowType="1" transform="matrix(1,0,0,1,2.12132,2.12132)" class="st2">
						<path d="M0 396.89 C0 396.89 9.31 402.23 9.31 411.29 L9.31 425.2 L42.71 425.2 L42.71 396.89 L0 396.89 ZM27.44
									 422.96 L24.7 422.96 L24.7 399.75 L27.44 399.75 L27.44 422.96 Z" class="st12"/>
					</g>
					<path d="M0 396.89 C0 396.89 9.31 402.23 9.31 411.29 L9.31 425.2 L42.71 425.2 L42.71 396.89 L0 396.89 ZM27.44
								 422.96 L24.7 422.96 L24.7 399.75 L27.44 399.75 L27.44 422.96 Z" class="st13"/>
				</g>
			</g>
		</g>
		<g id="group6380-206" transform="translate(73.7008,-31.2581)" v:mID="6380" v:groupContext="group">
			<title>Sheet.6380</title>
			<g id="shape6381-207" v:mID="6381" v:groupContext="shape" transform="translate(0.201221,-155.49)">
				<title>Arc: 3pt.6371</title>
				<v:userDefs>
					<v:ud v:nameU="visVersion" v:val="VT0(15):26"/>
				</v:userDefs>
				<g id="shadow6381-208" v:groupContext="shadow" v:shadowOffsetX="2.12132" v:shadowOffsetY="-2.12132"
						v:shadowType="1" transform="matrix(1,0,0,1,2.12132,2.12132)" class="st2">
					<path d="M0 269.6 A327.986 328.763 -180 0 0 227.6 425.2" class="st14"/>
				</g>
				<path d="M0 269.6 A327.986 328.763 -180 0 0 227.6 425.2" class="st15"/>
			</g>
			<g id="shape6382-218" v:mID="6382" v:groupContext="shape" transform="translate(0,-99.1356)">
				<title>Arc: 3pt.6373</title>
				<v:userDefs>
					<v:ud v:nameU="visVersion" v:val="VT0(15):26"/>
				</v:userDefs>
				<g id="shadow6382-219" v:groupContext="shadow" v:shadowOffsetX="2.12132" v:shadowOffsetY="-2.12132"
						v:shadowType="1" transform="matrix(1,0,0,1,2.12132,2.12132)" class="st2">
					<path d="M0 425.2 A449.747 450.813 0 0 1 227.8 368.84" class="st14"/>
				</g>
				<path d="M0 425.2 A449.747 450.813 0 0 1 227.8 368.84" class="st15"/>
			</g>
			<g id="shape6383-228" v:mID="6383" v:groupContext="shape" transform="translate(0,694.795) scale(1,-1)">
				<title>Arc: 3pt.6377</title>
				<v:userDefs>
					<v:ud v:nameU="visVersion" v:val="VT0(15):26"/>
				</v:userDefs>
				<g id="shadow6383-229" v:groupContext="shadow" v:shadowOffsetX="2.12132" v:shadowOffsetY="-2.12132"
						v:shadowType="1" transform="matrix(1,0,0,1,2.12132,-2.12132)" class="st2">
					<path d="M0 269.6 A327.986 328.763 -180 0 0 227.6 425.2" class="st14"/>
				</g>
				<path d="M0 269.6 A327.986 328.763 -180 0 0 227.6 425.2" class="st15"/>
			</g>
			<g id="shape6384-238" v:mID="6384" v:groupContext="shape" transform="translate(7.99361E-14,638.441) scale(1,-1)">
				<title>Arc: 3pt.6378</title>
				<v:userDefs>
					<v:ud v:nameU="visVersion" v:val="VT0(15):26"/>
				</v:userDefs>
				<g id="shadow6384-239" v:groupContext="shadow" v:shadowOffsetX="2.12132" v:shadowOffsetY="-2.12132"
						v:shadowType="1" transform="matrix(1,0,0,1,2.12132,-2.12132)" class="st2">
					<path d="M0 425.2 A449.747 450.813 0 0 1 227.8 368.84" class="st14"/>
				</g>
				<path d="M0 425.2 A449.747 450.813 0 0 1 227.8 368.84" class="st15"/>
			</g>
		</g>
		<g id="group6379-248" transform="translate(73.7008,-31.2581)" v:mID="6379" v:groupContext="group">
			<title>Sheet.6379</title>
			<g id="shape6371-249" v:mID="6371" v:groupContext="shape" transform="translate(0.201221,-155.49)">
				<title>Arc: 3pt.6371</title>
				<v:userDefs>
					<v:ud v:nameU="visVersion" v:val="VT0(15):26"/>
				</v:userDefs>
				<path d="M1.37 271.87 L1.56 272.18 A327.986 328.763 -180 0 0 224.63 424.69 L224.98 424.75" class="st16"/>
			</g>
			<g id="shape6373-258" v:mID="6373" v:groupContext="shape" transform="translate(0,-99.1356)">
				<title>Arc: 3pt.6373</title>
				<v:userDefs>
					<v:ud v:nameU="visVersion" v:val="VT0(15):26"/>
				</v:userDefs>
				<path d="M2.33 423.92 L2.64 423.74 A449.747 450.813 0 0 1 224.78 368.79 L225.14 368.79" class="st16"/>
			</g>
			<g id="shape6377-265" v:mID="6377" v:groupContext="shape" transform="translate(0,694.795) scale(1,-1)">
				<title>Arc: 3pt.6377</title>
				<v:userDefs>
					<v:ud v:nameU="visVersion" v:val="VT0(15):26"/>
				</v:userDefs>
				<path d="M1.37 271.87 L1.56 272.18 A327.986 328.763 -180 0 0 224.63 424.69 L224.98 424.75" class="st16"/>
			</g>
			<g id="shape6378-272" v:mID="6378" v:groupContext="shape" transform="translate(7.99361E-14,638.441) scale(1,-1)">
				<title>Arc: 3pt.6378</title>
				<v:userDefs>
					<v:ud v:nameU="visVersion" v:val="VT0(15):26"/>
				</v:userDefs>
				<path d="M2.33 423.92 L2.64 423.74 A449.747 450.813 0 0 1 224.78 368.79 L225.14 368.79" class="st16"/>
			</g>
		</g>
		<g id="group6385-279" transform="translate(306.142,-119.055)" v:mID="6385" v:groupContext="group">
			<v:custProps>
				<v:cp v:nameU="Name" v:lbl="Name" v:type="0" v:invis="false" v:ask="false" v:langID="1033"/>
				<v:cp v:nameU="Location" v:lbl="Location" v:type="0" v:invis="false" v:ask="false" v:langID="1033"/>
				<v:cp v:nameU="Building" v:lbl="Building" v:type="0" v:invis="false" v:ask="false" v:langID="1033"/>
				<v:cp v:nameU="Room" v:lbl="Room" v:type="0" v:invis="false" v:ask="false" v:langID="1033"/>
				<v:cp v:nameU="Department" v:lbl="Department" v:type="0" v:invis="false" v:ask="false" v:langID="1033"/>
				<v:cp v:nameU="ShapeClass" v:lbl="ShapeClass" v:type="0" v:invis="true" v:ask="false" v:langID="1033"
						v:val="VT4(Connectivity)"/>
				<v:cp v:nameU="ShapeType" v:lbl="ShapeType" v:type="0" v:invis="true" v:ask="false" v:langID="1033"
						v:val="VT4(User)"/>
			</v:custProps>
			<v:userDefs>
				<v:ud v:nameU="HasText" v:val="VT0(0):5"/>
				<v:ud v:nameU="ShapeClass" v:val="VT0(4):26"/>
				<v:ud v:nameU="ShapeType" v:val="VT0(4):26"/>
				<v:ud v:nameU="SolSH" v:val="VT15({BF0433D9-CD73-4EB5-8390-8653BE590246}):41"/>
				<v:ud v:nameU="visLegendShape" v:val="VT0(2):26"/>
				<v:ud v:nameU="visVersion" v:prompt="" v:val="VT0(15):26"/>
			</v:userDefs>
			<title>User.349</title>
			<g id="shape6386-280" v:mID="6386" v:groupContext="shape" transform="translate(-4.60905,0)">
				<title>Sheet.6386</title>
				<path d="M11.66 388.29 A19.0671 18.6615 -180 0 0 -0 404.61 L0.06 412.26 A6.49779 6.35958 -180 0 0 2.49 417.31 A2.50228
							 2.44905 -180 0 0 5.27 417.76 A3.34855 3.27733 -180 0 0 6.87 420.24 A45.299 44.3354 -180 0 0 28.24 425.19
							 A14.6407 14.3293 -180 0 0 35.12 423.4 A2.37367 2.32318 -180 0 0 37.88 423.84 A9.81186 9.60315 -180 0
							 0 42.49 419.12 L42.49 405.62 A18.6915 18.2939 -180 0 0 30.86 389.62 L30.75 389.62 A12.641 12.3721 -180
							 1 0 11.69 388.29 L11.66 388.29 Z" class="st18"/>
				<path d="M11.66 388.29 A19.0671 18.6615 -180 0 0 -0 404.61 L0.06 412.26 A6.49779 6.35958 -180 0 0 2.49 417.31 A2.50228
							 2.44905 -180 0 0 5.27 417.76 A3.34855 3.27733 -180 0 0 6.87 420.24 A45.299 44.3354 -180 0 0 28.24 425.19
							 A14.6407 14.3293 -180 0 0 35.12 423.4 A2.37367 2.32318 -180 0 0 37.88 423.84 A9.81186 9.60315 -180 0
							 0 42.49 419.12 L42.49 405.62 A18.6915 18.2939 -180 0 0 30.86 389.62 L30.75 389.62 A12.641 12.3721 -180
							 1 0 11.69 388.29" class="st19"/>
			</g>
			<g id="shape6387-283" v:mID="6387" v:groupContext="shape" transform="translate(0.0287731,-5.68434E-13)">
				<title>Sheet.6387</title>
				<path d="M6.87 420.24 A45.299 44.3354 -180 0 0 28.24 425.19 A14.6407 14.3293 -180 0 0 35.12 423.4 A2.37367 2.32318
							 -180 0 0 37.88 423.84 A9.81186 9.60315 -180 0 0 42.49 419.12 L42.49 405.62 A18.6915 18.2939 -180 0 0
							 30.86 389.62 L11.66 388.29 A19.0671 18.6615 -180 0 0 -0 404.61 L0.06 412.26 A6.49779 6.35958 -180 0
							 0 2.49 417.31 A2.50228 2.44905 -180 0 0 5.27 417.76 A3.34855 3.27733 -180 0 0 6.87 420.24 Z"
						class="st20"/>
				<path d="M6.87 420.24 A45.299 44.3354 -180 0 0 28.24 425.19 A14.6407 14.3293 -180 0 0 35.12 423.4 A2.37367 2.32318
							 -180 0 0 37.88 423.84 A9.81186 9.60315 -180 0 0 42.49 419.12 L42.49 405.62 A18.6915 18.2939 -180 0 0
							 30.86 389.62M11.66 388.29 A19.0671 18.6615 -180 0 0 -0 404.61 L0.06 412.26 A6.49779 6.35958 -180 0 0
							 2.49 417.31 A2.50228 2.44905 -180 0 0 5.27 417.76 A3.34855 3.27733 -180 0 0 6.87 420.24" class="st21"/>
			</g>
			<g id="shape6388-288" v:mID="6388" v:groupContext="shape" transform="translate(9.19345,-31.9487)">
				<title>Sheet.6388</title>
				<ellipse cx="12.641" cy="412.825" rx="12.641" ry="12.3721" class="st22"/>
			</g>
			<g id="shape6389-291" v:mID="6389" v:groupContext="shape" transform="translate(-414.12,347.891) rotate(-80.5423)">
				<title>Sheet.6389</title>
				<path d="M-0 425.2 A43.8253 55.1945 0 0 1 23.71 425.2" class="st23"/>
			</g>
			<g id="shape6390-295" v:mID="6390" v:groupContext="shape" transform="translate(-387.725,454.868) rotate(-94.2553)">
				<title>Sheet.6390</title>
				<path d="M-0 424.05 A84.7366 106.767 -180 0 0 24.82 424.05" class="st23"/>
			</g>
			<g id="shape6391-299" v:mID="6391" v:groupContext="shape" transform="translate(11.7216,-32.1571)">
				<title>Sheet.6391</title>
				<path d="M0 420.24 A12.6648 12.3954 -180 0 0 19.09 421.57" class="st23"/>
			</g>
			<g id="shape6392-303" v:mID="6392" v:groupContext="shape" transform="translate(0.0287731,0)">
				<title>Sheet.6392</title>
				<path d="M11.66 388.29 A19.4535 19.0397 -180 0 0 -0 404.61 L0.06 412.26 A6.49779 6.35958 -180 0 0 2.49 417.31 A2.50228
							 2.44905 -180 0 0 5.27 417.76 A3.34855 3.27733 -180 0 0 6.87 420.24 A45.299 44.3354 -180 0 0 28.24 425.19
							 A14.6407 14.3293 -180 0 0 35.12 423.4 A2.37367 2.32318 -180 0 0 37.88 423.84 A9.81186 9.60315 -180 0
							 0 42.49 419.12 L42.49 406.87 A18.5051 18.1115 -180 0 0 30.86 389.62 L30.75 389.62 A12.646 12.377 -180
							 1 0 11.66 388.29" class="st24"/>
			</g>
		</g>
		<g id="group6393-306" transform="translate(301.89,-199.696)" v:mID="6393" v:groupContext="group">
			<v:custProps>
				<v:cp v:nameU="Manufacturer" v:lbl="Manufacturer" v:type="0" v:sortKey="Equipment" v:invis="false" v:ask="false"
						v:langID="1033"/>
				<v:cp v:nameU="ProductNumber" v:lbl="Product Number" v:type="0" v:sortKey="Equipment" v:invis="false" v:ask="false"
						v:langID="1033"/>
				<v:cp v:nameU="PartNumber" v:lbl="Part Number" v:type="0" v:sortKey="Equipment" v:invis="false" v:ask="false"
						v:langID="1033"/>
				<v:cp v:nameU="ProductDescription" v:lbl="Product Description" v:type="0" v:sortKey="Equipment" v:invis="false"
						v:ask="false" v:langID="1033"/>
				<v:cp v:nameU="AssetNumber" v:lbl="Asset Number" v:type="0" v:sortKey="Asset" v:invis="false" v:ask="false"
						v:langID="1033"/>
				<v:cp v:nameU="SerialNumber" v:lbl="Serial Number" v:type="0" v:sortKey="Asset" v:invis="false" v:ask="false"
						v:langID="1033"/>
				<v:cp v:nameU="Location" v:lbl="Location" v:type="0" v:sortKey="Asset" v:invis="false" v:ask="false"
						v:langID="1033"/>
				<v:cp v:nameU="Building" v:lbl="Building" v:type="0" v:sortKey="Asset" v:invis="false" v:ask="false"
						v:langID="1033"/>
				<v:cp v:nameU="Room" v:lbl="Room" v:type="0" v:sortKey="Asset" v:invis="false" v:ask="false" v:langID="1033"/>
				<v:cp v:nameU="Department" v:lbl="Department" v:type="0" v:invis="false" v:ask="false" v:langID="1033"/>
				<v:cp v:nameU="NetworkName" v:lbl="Network Name" v:type="0" v:sortKey="Network" v:invis="false" v:ask="false"
						v:langID="1033"/>
				<v:cp v:nameU="IPAddress" v:lbl="IP Address" v:type="0" v:sortKey="Network" v:invis="false" v:ask="false"
						v:langID="1033"/>
				<v:cp v:nameU="SubnetMask" v:lbl="Subnet Mask" v:type="0" v:sortKey="Network" v:invis="false" v:ask="false"
						v:langID="1033"/>
				<v:cp v:nameU="AdminInterface" v:lbl="Administrative Interface" v:type="0" v:sortKey="Network" v:invis="false"
						v:ask="false" v:langID="1033"/>
				<v:cp v:nameU="NumberofPorts" v:lbl="Number of Ports" v:type="0" v:sortKey="Network" v:invis="false" v:ask="false"
						v:langID="1033"/>
				<v:cp v:nameU="CommunityString" v:lbl="Community String" v:type="0" v:sortKey="Network" v:invis="false"
						v:ask="false" v:langID="1033"/>
				<v:cp v:nameU="NetworkDescription" v:lbl="Network Description" v:type="0" v:sortKey="Network" v:invis="false"
						v:ask="false" v:langID="1033"/>
				<v:cp v:nameU="CPU" v:lbl="CPU" v:type="0" v:sortKey="Workstation" v:invis="false" v:ask="false" v:langID="1033"/>
				<v:cp v:nameU="Memory" v:lbl="Memory" v:type="0" v:sortKey="Workstation" v:invis="false" v:ask="false"
						v:langID="1033"/>
				<v:cp v:nameU="OperatingSystem" v:lbl="Operating System" v:type="0" v:sortKey="Workstation" v:invis="false"
						v:ask="false" v:langID="1033"/>
				<v:cp v:nameU="BelongsTo" v:lbl="Belongs To" v:type="0" v:invis="true" v:ask="false" v:langID="1033"/>
				<v:cp v:nameU="ShapeClass" v:lbl="ShapeClass" v:type="0" v:invis="true" v:ask="false" v:langID="1033"
						v:val="VT4(Equipment)"/>
				<v:cp v:nameU="ShapeType" v:lbl="ShapeType" v:type="0" v:invis="true" v:ask="false" v:langID="1033"
						v:val="VT4(Server)"/>
				<v:cp v:nameU="MACAddress" v:lbl="MAC Address" v:type="0" v:sortKey="Network" v:invis="false" v:ask="false"
						v:langID="1033"/>
				<v:cp v:nameU="HardDriveSize" v:lbl="Hard Drive Capacity" v:type="0" v:sortKey="Workstation" v:invis="false"
						v:ask="false" v:langID="1033"/>
			</v:custProps>
			<v:userDefs>
				<v:ud v:nameU="HasText" v:val="VT0(0):5"/>
				<v:ud v:nameU="SolSH" v:val="VT15({BF0433D9-CD73-4EB5-8390-8653BE590246}):41"/>
				<v:ud v:nameU="ShapeClass" v:val="VT0(5):26"/>
				<v:ud v:nameU="ShapeType" v:val="VT0(24):26"/>
				<v:ud v:nameU="visLegendShape" v:val="VT0(2):26"/>
				<v:ud v:nameU="visVersion" v:prompt="" v:val="VT0(15):26"/>
			</v:userDefs>
			<title>Server.85</title>
			<g id="shape6394-307" v:mID="6394" v:groupContext="shape">
				<title>Sheet.6394</title>
				<path d="M51.02 364.84 L31.4 354.33 L0 371.44 L0.01 415.37 A33.0369 30.8521 -180 0 0 19.37 425.2 L51.02 408.09 L51.02
							 364.84 ZM8.71 378.28 A34.0948 31.84 -180 0 0 19.37 382.07 A33.7139 31.4843 0 0 1 8.71 378.28 Z"
						class="st25"/>
			</g>
			<g id="shape6395-309" v:mID="6395" v:groupContext="shape" transform="translate(0,-43.1295)">
				<title>Sheet.6395</title>
				<path d="M19.36 425.2 L51.02 407.97 L31.4 397.46 L0 414.57 A34.0948 31.84 -180 0 0 19.37 425.2 L19.36 425.2 Z"
						class="st26"/>
				<path d="M19.36 425.2 L51.02 407.97 L31.4 397.46 L0 414.57 A34.0948 31.84 -180 0 0 19.37 425.2" class="st27"/>
			</g>
			<g id="shape6396-314" v:mID="6396" v:groupContext="shape" transform="translate(0.0115937,0)">
				<title>Sheet.6396</title>
				<path d="M19.36 382.07 A33.7139 31.4843 0 0 1 0 371.39 L0 415.37 A33.0369 30.8521 -180 0 0 19.36 425.2 L19.35 382.07
							 L19.36 382.07 Z" class="st28"/>
				<path d="M19.36 382.07 A33.7139 31.4843 0 0 1 0 371.39 L0 415.37 A33.0369 30.8521 -180 0 0 19.36 425.2 L19.35 382.07"
						class="st27"/>
			</g>
			<g id="shape6397-321" v:mID="6397" v:groupContext="shape" transform="translate(19.3628,-0.0487457)">
				<title>Sheet.6397</title>
				<path d="M0 382.12 L0 425.2 L31.66 408.14 L31.66 364.89 L0 382.12 Z" class="st29"/>
			</g>
			<g id="shape6398-327" v:mID="6398" v:groupContext="shape" transform="translate(3.19744E-14,-0.00156214)">
				<title>Sheet.6398</title>
				<path d="M51.02 364.84 L31.4 354.33 L0 371.44 L0.01 415.37 A33.0369 30.8521 -180 0 0 19.37 425.2 L51.02 408.09 L51.02
							 364.84" class="st30"/>
			</g>
			<g id="shape6399-330" v:mID="6399" v:groupContext="shape" transform="translate(-137.218,2.86129) rotate(-20)">
				<title>Sheet.6399</title>
				<ellipse cx="1.4821" cy="423.179" rx="1.4821" ry="2.01816" class="st31"/>
			</g>
			<g id="shape6400-336" v:mID="6400" v:groupContext="shape" transform="translate(3.13992,-6.23262)">
				<title>Sheet.6400</title>
				<path d="M-0 413.22 A37.8205 34.5426 -96.44 0 0 13.08 419.94" class="st32"/>
				<path d="M0 415.85 A37.8205 34.5426 -96.44 0 0 13.08 422.57" class="st32"/>
				<path d="M0 418.48 A37.8205 34.5426 -96.44 0 0 13.08 425.2" class="st32"/>
			</g>
			<g id="group6401-343" transform="translate(2.6166,-30.546)" v:mID="6401" v:groupContext="group">
				<title>Sheet.6401</title>
				<g id="shape6402-344" v:mID="6402" v:groupContext="shape" transform="translate(0,-7.06961)">
					<title>Sheet.6402</title>
					<path d="M0.47 418.48 A32.9981 30.8159 -180 0 0 13.55 425.2 a0.670503 0.62616 -180 0 0 3.01981E-14 -1.22178 A32.1003
								 29.9774 0 0 1 0.73 417.45 a0.434387 0.40566 -180 0 0 -0.725202 0.344859 a0.946727 0.884117 -180
								 0 0 0.463543 0.681433 Z" class="st33"/>
				</g>
				<g id="shape6403-346" v:mID="6403" v:groupContext="shape" transform="translate(4.16081,-8.60965)">
					<title>Sheet.6403</title>
					<path d="M4.02 425.15 A4.90309 2.98481 -90.9 0 0 0.1 423.19 A3.22599 1.60837 -180 0 0 4.02 425.15 Z"
							class="st34"/>
				</g>
				<g id="shape6404-351" v:mID="6404" v:groupContext="shape" transform="translate(0.523319,-0.0610888)">
					<title>Sheet.6404</title>
					<path d="M0 415.06 L0 418.48 A35.496 33.1485 -180 0 0 13.08 425.2 L13.08 421.78 A36.6577 34.2334 0 0 1 -0 415.06
								 Z" class="st35"/>
				</g>
				<g id="shape6405-359" v:mID="6405" v:groupContext="shape" transform="translate(0.523319,-1.95484)">
					<title>Sheet.6405</title>
					<path d="M0 418.48 A32.1279 30.0032 -180 0 0 13.08 425.2 L13.08 424.34 A35.5103 33.1619 0 0 1 0 417.62 L0 418.48
								 Z" class="st36"/>
				</g>
				<g id="shape6406-361" v:mID="6406" v:groupContext="shape" transform="translate(0.523319,-0.122178)">
					<title>Sheet.6406</title>
					<path d="M0 415.06 L0 418.48 A35.496 33.1485 -180 0 0 13.08 425.2" class="st27"/>
				</g>
				<g id="shape6407-364" v:mID="6407" v:groupContext="shape" transform="translate(0.523319,0)">
					<title>Sheet.6407</title>
					<path d="M13.08 425.2 L13.08 421.78 A36.6577 34.2334 0 0 1 0 415.06" class="st37"/>
				</g>
			</g>
		</g>
	</g>
</svg>
