<svg width="647" height="542" viewBox="0 0 647 542" fill="none" xmlns="http://www.w3.org/2000/svg">
<path d="M1068.91 219.29C1070.79 225.642 1072.15 232.091 1072.97 238.628L1071.49 238.815C1071.89 242.043 1072.16 245.292 1072.3 248.562C1072.43 251.832 1072.43 255.093 1072.3 258.344L1073.8 258.407C1073.52 264.989 1072.7 271.528 1071.35 278.015L1069.88 277.709C1068.56 284.022 1066.75 290.287 1064.44 296.496L1065.84 297.018C1063.59 303.084 1060.88 309.093 1057.72 315.035L1056.4 314.332C1053.4 319.978 1050 325.567 1046.21 331.092L1047.44 331.941C1043.79 337.262 1039.78 342.52 1035.42 347.708L1034.27 346.744C1030.17 351.635 1025.75 356.466 1021.04 361.231L1022.11 362.286C1017.57 366.869 1012.76 371.39 1007.69 375.842L1006.7 374.715C1001.87 378.959 996.796 383.141 991.488 387.258L992.407 388.444C987.29 392.412 981.959 396.319 976.422 400.16L975.567 398.928C970.259 402.609 964.76 406.231 959.076 409.788L959.872 411.06C954.37 414.504 948.697 417.887 942.859 421.207L942.118 419.903C936.488 423.104 930.704 426.247 924.77 429.328L925.462 430.659C919.693 433.655 913.784 436.592 907.74 439.468L907.095 438.113C901.236 440.902 895.249 443.632 889.139 446.303L889.74 447.678C883.774 450.285 877.693 452.836 871.499 455.327L870.939 453.936C864.906 456.362 858.766 458.732 852.524 461.044L853.045 462.451C846.927 464.716 840.712 466.925 834.402 469.077L833.918 467.657C827.748 469.76 821.488 471.808 815.14 473.798L815.589 475.23C809.35 477.186 803.027 479.087 796.624 480.931L796.209 479.489C789.928 481.298 783.57 483.051 777.137 484.748L777.52 486.198C771.181 487.87 764.77 489.487 758.29 491.047L757.939 489.589C751.593 491.117 745.181 492.591 738.705 494.009L739.026 495.474C732.633 496.874 726.178 498.219 719.664 499.509L719.373 498.038C712.953 499.309 706.476 500.526 699.944 501.687L700.207 503.164C693.744 504.313 687.229 505.408 680.662 506.447L680.427 504.965C673.952 505.989 667.427 506.96 660.855 507.875L661.062 509.36C654.573 510.264 648.038 511.113 641.46 511.907L641.28 510.418C634.774 511.204 628.226 511.935 621.637 512.611L621.79 514.103C615.253 514.774 608.675 515.391 602.06 515.952L601.933 514.458C595.394 515.012 588.818 515.513 582.207 515.958L582.308 517.455C575.762 517.896 569.182 518.283 562.57 518.614L562.495 517.116C559.198 517.281 555.893 517.433 552.581 517.57C549.269 517.708 545.963 517.831 542.664 517.94L542.713 519.439C536.097 519.657 529.507 519.817 522.947 519.921L522.924 518.421C516.299 518.526 509.704 518.572 503.141 518.562L503.138 520.062C496.5 520.051 489.894 519.982 483.323 519.856L483.352 518.356C476.73 518.229 470.143 518.043 463.595 517.8L463.539 519.299C456.917 519.053 450.335 518.749 443.793 518.387L443.876 516.889C437.251 516.523 430.668 516.097 424.13 515.613L424.019 517.109C417.389 516.618 410.805 516.068 404.269 515.459L404.409 513.965C397.803 513.35 391.247 512.674 384.744 511.94L384.576 513.43C377.977 512.685 371.433 511.88 364.946 511.015L365.144 509.528C358.573 508.652 352.06 507.716 345.61 506.719L345.381 508.202C338.794 507.184 332.271 506.105 325.815 504.964L326.076 503.487C319.525 502.33 313.043 501.11 306.635 499.829L306.341 501.3C299.806 499.993 293.347 498.623 286.968 497.191L287.296 495.728C280.805 494.271 274.397 492.749 268.074 491.165L267.71 492.62C261.243 491 254.865 489.314 248.581 487.563L248.984 486.118C242.571 484.332 236.256 482.48 230.042 480.562L229.6 481.995C223.221 480.026 216.948 477.989 210.787 475.885L211.272 474.465C204.961 472.31 198.768 470.086 192.698 467.793L192.168 469.196C185.906 466.832 179.774 464.395 173.776 461.888L174.355 460.504C168.186 457.926 162.161 455.274 156.286 452.551L155.655 453.912C149.561 451.087 143.627 448.186 137.859 445.211L138.547 443.877C132.587 440.803 126.806 437.65 121.212 434.422L120.462 435.721C114.625 432.353 108.988 428.902 103.56 425.371L104.378 424.113C98.7468 420.451 93.3426 416.704 88.1741 412.875L87.2814 414.081C81.8588 410.065 76.6927 405.958 71.7933 401.767L72.7685 400.627C67.6755 396.269 62.875 391.821 58.3781 387.287L57.3131 388.344C52.5434 383.535 48.1105 378.627 44.0283 373.627L45.1902 372.679C40.9519 367.488 37.0976 362.2 33.642 356.822L32.3801 357.633C28.7433 351.973 25.5413 346.21 22.7922 340.352L24.1501 339.715C21.3364 333.719 19.0041 327.626 17.1716 321.444L15.7335 321.87C13.8505 315.518 12.4877 309.07 11.6661 302.533L13.1544 302.346C12.7487 299.118 12.4766 295.868 12.3408 292.598C12.2049 289.328 12.2065 286.067 12.3431 282.817L10.8444 282.754C11.121 276.172 11.9441 269.632 13.2937 263.146L14.7623 263.451C16.0757 257.138 17.8946 250.873 20.2013 244.664L18.7952 244.142C21.0489 238.076 23.7618 232.067 26.9166 226.125L28.2415 226.829C31.2391 221.183 34.6415 215.593 38.4346 210.069L37.198 209.22C40.8514 203.899 44.862 198.641 49.2165 193.452L50.3654 194.417C54.4707 189.526 58.8857 184.694 63.5997 179.93L62.5333 178.875C67.0681 174.291 71.8759 169.77 76.9466 165.318L77.9363 166.445C82.7694 162.202 87.8441 158.019 93.152 153.902L92.2327 152.717C97.3494 148.748 102.68 144.841 108.218 141L109.073 142.233C114.38 138.551 119.88 134.93 125.564 131.372L124.768 130.101C130.269 126.657 135.942 123.273 141.781 119.953L142.522 121.257C148.152 118.056 153.936 114.913 159.869 111.832L159.178 110.501C164.947 107.506 170.856 104.568 176.9 101.693L177.545 103.047C183.404 100.259 189.391 97.5282 195.501 94.8572L194.9 93.4828C200.865 90.875 206.947 88.3243 213.141 85.833L213.701 87.2246C219.734 84.7982 225.874 82.428 232.116 80.1162L231.595 78.7096C237.713 76.4442 243.928 74.235 250.238 72.0838L250.722 73.5035C256.892 71.4003 263.152 69.3525 269.5 67.3621L269.051 65.9309C275.29 63.9745 281.613 62.0735 288.016 60.2297L288.431 61.6712C294.712 59.8628 301.07 58.1094 307.503 56.4127L307.12 54.9623C313.459 53.2904 319.869 51.6736 326.349 50.1132L326.7 51.5715C333.046 50.0435 339.459 48.5697 345.935 47.1517L345.614 45.6864C352.007 44.2866 358.462 42.9411 364.976 41.6513L365.267 43.1228C371.687 41.8517 378.164 40.6347 384.696 39.4734L384.433 37.9965C390.895 36.8476 397.411 35.7529 403.978 34.7139L404.212 36.1955C410.688 35.171 417.213 34.2006 423.785 33.2857L423.578 31.8C430.067 30.8967 436.602 30.0473 443.18 29.2531L443.36 30.7423C449.865 29.9568 456.414 29.2254 463.003 28.5492L462.85 27.0571C469.387 26.3861 475.965 25.7695 482.58 25.2082L482.706 26.7029C489.246 26.148 495.822 25.6474 502.433 25.2022L502.332 23.7056C508.878 23.2647 515.458 22.878 522.07 22.5465L522.145 24.0446C525.442 23.8794 528.746 23.7279 532.059 23.5903C535.371 23.4527 538.677 23.3295 541.976 23.2208L541.927 21.7216C548.543 21.5034 555.132 21.343 561.693 21.2394L561.716 22.7392C568.341 22.6346 574.936 22.588 581.499 22.5985L581.501 21.0985C588.14 21.1091 594.746 21.1781 601.317 21.3044L601.288 22.8042C607.91 22.9315 614.497 23.1172 621.045 23.3603L621.101 21.8613C627.723 22.1071 634.305 22.4116 640.846 22.7735L640.764 24.2713C647.389 24.6379 653.972 25.0637 660.51 25.5476L660.621 24.0517C667.251 24.5424 673.835 25.0928 680.37 25.7018L680.231 27.1953C686.837 27.8109 693.393 28.4863 699.896 29.2206L700.064 27.7301C706.662 28.4751 713.207 29.2805 719.694 30.1452L719.496 31.6321C726.067 32.508 732.579 33.4448 739.03 34.4413L739.259 32.9588C745.846 33.9763 752.369 35.0559 758.824 36.1962L758.564 37.6733C765.115 38.8306 771.597 40.0505 778.005 41.3317L778.299 39.8609C784.834 41.1672 791.292 42.5371 797.672 43.9692L797.344 45.4328C803.834 46.8898 810.243 48.4112 816.566 49.9955L816.93 48.5405C823.397 50.1609 829.775 51.8469 836.059 53.5971L835.656 55.0421C842.069 56.8281 848.384 58.6808 854.598 60.5985L855.04 59.1652C861.419 61.1342 867.692 63.1716 873.853 65.2756L873.368 66.6951C879.679 68.8501 885.872 71.0748 891.942 73.3673L892.472 71.964C898.733 74.3287 904.866 76.7656 910.863 79.2723L910.285 80.6563C916.454 83.2345 922.479 85.8865 928.354 88.6098L928.985 87.2489C935.078 90.0733 941.013 92.9745 946.781 95.95L946.093 97.2831C952.053 100.357 957.833 103.51 963.428 106.739L964.178 105.439C970.015 108.808 975.651 112.259 981.08 115.79L980.262 117.047C985.893 120.71 991.297 124.457 996.466 128.285L997.358 127.08C1002.78 131.096 1007.95 135.202 1012.85 139.394L1011.87 140.534C1016.96 144.891 1021.76 149.339 1026.26 153.873L1027.33 152.817C1032.1 157.626 1036.53 162.533 1040.61 167.533L1039.45 168.482C1043.69 173.673 1047.54 178.96 1051 184.338L1052.26 183.527C1055.9 189.187 1059.1 194.95 1061.85 200.808L1060.49 201.446C1063.3 207.441 1065.64 213.534 1067.47 219.716L1068.91 219.29Z" stroke="#0D6800" stroke-opacity="0.2" stroke-width="3" stroke-dasharray="20 20"/>
<path d="M872.447 231.092C874.825 237.305 876.53 243.651 877.525 250.115L876.042 250.343C876.533 253.531 876.848 256.748 876.983 259.992C877.117 263.236 877.07 266.468 876.846 269.686L878.342 269.791C877.887 276.315 876.714 282.781 874.86 289.169L873.419 288.751C871.652 294.838 869.254 300.861 866.254 306.804L867.593 307.48C864.715 313.18 861.294 318.8 857.357 324.326L856.135 323.456C852.483 328.581 848.379 333.63 843.843 338.592L844.95 339.604C840.65 344.306 835.969 348.926 830.925 353.453L829.923 352.337C825.192 356.584 820.138 360.752 814.774 364.831L815.682 366.025C810.594 369.895 805.233 373.684 799.611 377.386L798.786 376.133C793.443 379.651 787.861 383.091 782.052 386.447L782.803 387.746C777.229 390.966 771.448 394.108 765.47 397.167L764.787 395.832C759.073 398.756 753.178 401.604 747.11 404.371L747.732 405.736C741.85 408.419 735.808 411.026 729.613 413.552L729.046 412.163C723.063 414.604 716.935 416.97 710.672 419.257L711.186 420.666C705.097 422.89 698.881 425.04 692.543 427.112L692.076 425.686C685.929 427.696 679.667 429.633 673.295 431.494L673.716 432.934C667.482 434.755 661.145 436.503 654.709 438.175L654.332 436.723C648.052 438.355 641.678 439.915 635.216 441.4L635.552 442.862C629.208 444.32 622.779 445.706 616.27 447.017L615.973 445.547C609.599 446.831 603.148 448.043 596.625 449.181L596.882 450.659C590.46 451.78 583.967 452.829 577.408 453.804L577.188 452.32C570.747 453.278 564.242 454.164 557.678 454.977L557.862 456.465C551.384 457.267 544.848 457.998 538.258 458.654L538.109 457.162C531.622 457.808 525.082 458.383 518.494 458.884L518.608 460.38C512.092 460.876 505.529 461.3 498.923 461.65L498.844 460.152C495.566 460.325 492.277 460.481 488.978 460.618C485.679 460.755 482.389 460.873 479.108 460.972L479.153 462.471C472.541 462.67 465.965 462.792 459.431 462.838L459.42 461.339C452.813 461.385 446.249 461.355 439.73 461.249L439.705 462.749C433.084 462.641 426.51 462.455 419.987 462.193L420.047 460.695C413.439 460.429 406.883 460.086 400.384 459.666L400.288 461.162C393.671 460.735 387.114 460.228 380.62 459.644L380.754 458.15C374.159 457.556 367.629 456.883 361.171 456.132L360.997 457.622C354.402 456.856 347.88 456.008 341.437 455.081L341.65 453.596C335.087 452.652 328.606 451.627 322.212 450.521L321.957 451.999C315.405 450.866 308.944 449.65 302.581 448.353L302.881 446.883C296.377 445.557 289.975 444.146 283.683 442.653L283.336 444.112C276.848 442.573 270.474 440.946 264.222 439.235L264.618 437.789C258.186 436.029 251.884 434.179 245.719 432.243L245.269 433.674C238.886 431.67 232.648 429.574 226.564 427.388L227.071 425.977C220.794 423.722 214.683 421.373 208.746 418.933L208.176 420.32C201.965 417.767 195.944 415.116 190.122 412.369L190.762 411.012C184.695 408.15 178.847 405.184 173.231 402.121L172.512 403.438C166.603 400.216 160.946 396.885 155.555 393.45L156.36 392.185C150.677 388.564 145.293 384.83 140.226 380.991L139.32 382.186C133.919 378.093 128.871 373.877 124.196 369.548L125.215 368.447C120.283 363.879 115.774 359.188 111.709 354.383L110.564 355.352C106.182 350.171 102.306 344.854 98.9662 339.413L100.245 338.628C96.7612 332.954 93.872 327.15 91.6063 321.231L90.2054 321.768C87.8272 315.555 86.1224 309.209 85.1275 302.745L86.61 302.516C86.1194 299.328 85.8044 296.112 85.6696 292.867C85.5349 289.623 85.5819 286.391 85.8064 283.173L84.3101 283.069C84.7654 276.544 85.938 270.079 87.7926 263.69L89.2331 264.108C91.0001 258.022 93.398 251.999 96.3987 246.055L95.0596 245.379C97.9371 239.68 101.358 234.06 105.296 228.533L106.517 229.404C110.169 224.278 114.273 219.229 118.81 214.268L117.703 213.255C122.003 208.553 126.684 203.933 131.727 199.406L132.729 200.522C137.46 196.275 142.515 192.108 147.879 188.028L146.971 186.834C152.058 182.964 157.42 179.175 163.042 175.474L163.866 176.727C169.21 173.208 174.791 169.768 180.6 166.412L179.85 165.114C185.424 161.893 191.205 158.751 197.182 155.692L197.865 157.027C203.579 154.104 209.475 151.255 215.543 148.488L214.92 147.123C220.802 144.44 226.844 141.834 233.04 139.307L233.606 140.696C239.59 138.255 245.717 135.89 251.981 133.602L251.466 132.193C257.555 129.969 263.772 127.82 270.11 125.747L270.576 127.173C276.723 125.163 282.986 123.226 289.357 121.365L288.936 119.926C295.17 118.105 301.508 116.357 307.943 114.684L308.32 116.136C314.6 114.504 320.974 112.944 327.436 111.459L327.1 109.997C333.444 108.539 339.874 107.154 346.383 105.842L346.679 107.313C353.053 106.029 359.504 104.816 366.028 103.678L365.77 102.2C372.193 101.08 378.686 100.03 385.244 99.0553L385.465 100.539C391.906 99.5813 398.41 98.6951 404.974 97.8826L404.79 96.3939C411.269 95.5919 417.805 94.8616 424.394 94.205L424.543 95.6976C431.031 95.0511 437.57 94.4763 444.158 93.975L444.044 92.4794C450.56 91.9836 457.123 91.5597 463.729 91.2096L463.809 92.7075C467.087 92.5338 470.375 92.3783 473.674 92.2413C476.973 92.1042 480.263 91.9864 483.544 91.8876L483.499 90.3883C490.111 90.1892 496.687 90.0673 503.222 90.0208L503.232 91.5208C509.839 91.4739 516.404 91.5043 522.923 91.6104L522.947 90.1106C529.568 90.2184 536.142 90.4041 542.665 90.6659L542.605 92.1647C549.214 92.43 555.769 92.7736 562.268 93.1937L562.365 91.6968C568.981 92.1246 575.539 92.6315 582.033 93.2157L581.898 94.7096C588.494 95.3029 595.023 95.9761 601.482 96.7269L601.655 95.237C608.251 96.0038 614.772 96.8516 621.216 97.7782L621.002 99.263C627.565 100.207 634.046 101.233 640.44 102.338L640.695 100.86C647.248 101.993 653.708 103.209 660.072 104.507L659.772 105.976C666.276 107.303 672.677 108.713 678.97 110.206L679.316 108.747C685.804 110.286 692.178 111.913 698.43 113.624L698.034 115.071C704.466 116.831 710.768 118.68 716.934 120.616L717.383 119.185C723.767 121.189 730.005 123.286 736.088 125.471L735.581 126.883C741.858 129.138 747.969 131.487 753.906 133.927L754.476 132.539C760.687 135.092 766.708 137.744 772.531 140.491L771.89 141.847C777.958 144.71 783.805 147.675 789.422 150.738L790.14 149.421C796.05 152.644 801.707 155.975 807.098 159.409L806.292 160.674C811.976 164.295 817.359 168.029 822.426 171.869L823.332 170.673C828.733 174.767 833.781 178.982 838.456 183.312L837.437 184.412C842.37 188.98 846.879 193.672 850.943 198.477L852.088 197.508C856.47 202.689 860.346 208.005 863.686 213.447L862.408 214.231C865.891 219.905 868.78 225.709 871.046 231.628L872.447 231.092Z" stroke="#0D6800" stroke-opacity="0.2" stroke-width="3" stroke-dasharray="20 20"/>
<path d="M761.842 241.648C764.913 247.814 767.106 254.168 768.356 260.684L766.883 260.967C767.501 264.193 767.883 267.459 768.02 270.762C768.157 274.065 768.048 277.351 767.699 280.618L769.19 280.777C768.486 287.374 766.828 293.888 764.278 300.288L762.884 299.732C760.529 305.643 757.394 311.467 753.523 317.176L754.765 318.018C751.141 323.364 746.888 328.599 742.048 333.704L740.96 332.672C736.566 337.305 731.678 341.836 726.324 346.245L727.277 347.403C722.27 351.527 716.865 355.542 711.086 359.435L710.248 358.191C704.873 361.811 699.17 365.328 693.16 368.728L693.898 370.034C688.208 373.253 682.247 376.367 676.032 379.368L675.379 378.018C669.497 380.858 663.384 383.596 657.056 386.226L657.631 387.611C651.542 390.141 645.255 392.57 638.784 394.89L638.277 393.478C632.09 395.697 625.732 397.816 619.216 399.831L619.659 401.264C613.332 403.22 606.858 405.077 600.246 406.83L599.862 405.38C593.477 407.072 586.964 408.667 580.331 410.159L580.66 411.622C574.173 413.082 567.572 414.443 560.867 415.702L560.59 414.228C554.081 415.45 547.473 416.575 540.773 417.6L541 419.083C534.418 420.089 527.748 420.998 520.999 421.806L520.821 420.317C514.215 421.108 507.533 421.801 500.781 422.394L500.912 423.888C494.273 424.471 487.568 424.956 480.802 425.34L480.717 423.843C477.372 424.033 474.013 424.198 470.64 424.338C467.267 424.478 463.905 424.592 460.557 424.68L460.596 426.18C453.822 426.358 447.099 426.431 440.435 426.401L440.442 424.901C433.664 424.87 426.947 424.733 420.298 424.493L420.244 425.992C413.451 425.747 406.729 425.394 400.087 424.937L400.189 423.44C393.428 422.975 386.749 422.402 380.161 421.724L380.008 423.216C373.221 422.517 366.53 421.708 359.944 420.792L360.151 419.306C353.417 418.369 346.793 417.32 340.291 416.164L340.028 417.64C333.293 416.442 326.687 415.129 320.221 413.704L320.543 412.239C313.882 410.772 307.371 409.187 301.02 407.489L300.633 408.938C293.992 407.163 287.525 405.264 281.247 403.248L281.705 401.82C275.18 399.724 268.861 397.502 262.764 395.16L262.226 396.56C255.783 394.085 249.584 391.476 243.646 388.74L244.274 387.377C238.002 384.487 232.027 381.456 226.371 378.294L225.639 379.603C219.557 376.203 213.837 372.65 208.505 368.956L209.359 367.723C203.658 363.772 198.411 359.663 193.648 355.41L192.649 356.529C187.402 351.843 182.73 346.978 178.675 341.952L179.843 341.01C175.512 335.641 171.904 330.098 169.067 324.403L167.724 325.071C164.652 318.906 162.459 312.552 161.21 306.036L162.683 305.753C162.065 302.527 161.683 299.261 161.546 295.958C161.408 292.655 161.518 289.368 161.867 286.102L160.375 285.943C161.08 279.346 162.738 272.831 165.288 266.432L166.681 266.987C169.037 261.077 172.172 255.253 176.043 249.543L174.801 248.702C178.425 243.356 182.678 238.12 187.518 233.016L188.606 234.048C193 229.414 197.888 224.884 203.242 220.474L202.288 219.317C207.296 215.192 212.701 211.177 218.48 207.285L219.318 208.529C224.693 204.908 230.395 201.392 236.406 197.991L235.667 196.686C241.357 193.467 247.319 190.352 253.534 187.351L254.186 188.702C260.069 185.862 266.182 183.123 272.51 180.494L271.935 179.109C278.024 176.579 284.311 174.15 290.782 171.83L291.289 173.242C297.476 171.023 303.834 168.903 310.35 166.889L309.907 165.456C316.233 163.5 322.708 161.643 329.32 159.89L329.704 161.34C336.088 159.648 342.602 158.053 349.235 156.561L348.906 155.097C355.393 153.638 361.994 152.277 368.699 151.017L368.976 152.492C375.485 151.27 382.093 150.144 388.793 149.12L388.566 147.637C395.148 146.631 401.817 145.721 408.567 144.913L408.745 146.403C415.351 145.612 422.033 144.918 428.785 144.326L428.654 142.832C435.293 142.249 441.998 141.764 448.764 141.379L448.849 142.877C452.194 142.687 455.553 142.522 458.926 142.381C462.299 142.241 465.66 142.127 469.009 142.039L468.97 140.54C475.744 140.362 482.467 140.289 489.131 140.319L489.124 141.819C495.902 141.85 502.619 141.986 509.268 142.227L509.322 140.728C516.115 140.973 522.837 141.326 529.479 141.783L529.376 143.279C536.138 143.744 542.817 144.318 549.404 144.996L549.558 143.504C556.345 144.202 563.036 145.011 569.621 145.928L569.415 147.413C576.149 148.35 582.772 149.399 589.275 150.556L589.538 149.079C596.272 150.277 602.878 151.591 609.345 153.015L609.023 154.48C615.683 155.947 622.195 157.533 628.545 159.23L628.933 157.781C635.574 159.557 642.041 161.456 648.319 163.472L647.861 164.9C654.385 166.995 660.704 169.218 666.802 171.56L667.34 170.16C673.783 172.635 679.982 175.244 685.919 177.98L685.292 179.342C691.564 182.233 697.538 185.264 703.195 188.426L703.927 187.117C710.009 190.517 715.729 194.069 721.061 197.764L720.206 198.997C725.907 202.947 731.155 207.057 735.918 211.31L736.917 210.191C742.163 214.876 746.836 219.741 750.891 224.768L749.723 225.71C754.054 231.078 757.662 236.622 760.499 242.317L761.842 241.648Z" stroke="#0D6800" stroke-opacity="0.2" stroke-width="3" stroke-dasharray="20 20"/>
</svg>
