<svg width="539" height="252" viewBox="0 0 539 252" fill="none" xmlns="http://www.w3.org/2000/svg">
<path d="M531.065 96.921C534.154 103.067 536.279 109.387 537.362 115.844L535.882 116.092C536.42 119.301 536.694 122.543 536.694 125.814C536.694 129.086 536.42 132.328 535.882 135.537L537.362 135.785C536.279 142.242 534.154 148.562 531.065 154.708L529.724 154.034C526.911 159.632 523.274 165.098 518.867 170.401L520.021 171.36C515.946 176.264 511.232 181.019 505.927 185.603L504.946 184.468C500.166 188.599 494.893 192.595 489.164 196.437L489.999 197.683C484.66 201.264 478.933 204.708 472.847 208.004L472.132 206.684C466.483 209.743 460.518 212.674 454.262 215.467L454.873 216.836C448.941 219.484 442.752 222.005 436.323 224.392L435.801 222.986C429.712 225.247 423.408 227.387 416.902 229.398L417.345 230.831C411.093 232.765 404.657 234.579 398.054 236.268L397.682 234.815C391.359 236.432 384.879 237.934 378.257 239.315L378.564 240.783C372.127 242.125 365.557 243.352 358.865 244.458L358.621 242.979C352.144 244.05 345.552 245.008 338.856 245.849L339.043 247.337C332.5 248.158 325.86 248.867 319.13 249.458L318.999 247.964C312.436 248.541 305.788 249.006 299.065 249.356L299.143 250.854C292.541 251.196 285.866 251.428 279.129 251.543L279.103 250.043C275.783 250.1 272.447 250.129 269.097 250.129C265.747 250.129 262.412 250.1 259.091 250.043L259.066 251.543C252.328 251.428 245.654 251.196 239.052 250.854L239.129 249.356C232.406 249.006 225.759 248.541 219.195 247.964L219.064 249.458C212.335 248.867 205.694 248.158 199.152 247.337L199.338 245.849C192.643 245.008 186.051 244.05 179.574 242.979L179.329 244.458C172.637 243.352 166.067 242.125 159.631 240.783L159.937 239.315C153.315 237.934 146.836 236.432 140.512 234.815L140.141 236.268C133.537 234.579 127.102 232.765 120.849 230.831L121.292 229.398C114.787 227.387 108.482 225.247 102.394 222.986L101.872 224.392C95.4429 222.005 89.2529 219.484 83.3213 216.836L83.9326 215.467C77.6759 212.674 71.7114 209.743 66.062 206.684L65.3478 208.003C59.2613 204.708 53.5343 201.264 48.1954 197.683L49.0308 196.437C43.301 192.595 38.0288 188.599 33.2481 184.468L32.2673 185.603C26.9625 181.019 22.2487 176.264 18.1736 171.36L19.3273 170.401C14.9202 165.098 11.2834 159.632 8.47008 154.034L7.12984 154.708C4.04064 148.562 1.91534 142.242 0.832618 135.785L2.31196 135.537C1.77393 132.328 1.5 129.086 1.5 125.814C1.5 122.543 1.77393 119.301 2.31196 116.092L0.832615 115.844C1.91534 109.387 4.04064 103.067 7.12984 96.921L8.47008 97.5946C11.2834 91.9973 14.9202 86.5314 19.3273 81.2276L18.1736 80.269C22.2487 75.3648 26.9625 70.6097 32.2674 66.026L33.2481 67.161C38.0288 63.0301 43.301 59.0344 49.0308 55.1917L48.1954 53.946C53.5343 50.3654 59.2613 46.9208 65.3478 43.6254L66.062 44.9445C71.7114 41.8857 77.6759 38.9546 83.9327 36.1623L83.3214 34.7925C89.2529 32.1454 95.4429 29.6236 101.872 27.2365L102.394 28.6427C108.482 26.3821 114.787 24.242 121.292 22.2306L120.849 20.7975C127.102 18.8642 133.537 17.0496 140.141 15.3607L140.512 16.8139C146.836 15.1966 153.315 13.6947 159.937 12.3144L159.631 10.846C166.067 9.50428 172.637 8.27727 179.329 7.1705L179.574 8.65039C186.051 7.57911 192.643 6.62074 199.338 5.78038L199.152 4.29205C205.694 3.47094 212.335 2.76224 219.064 2.17066L219.195 3.6649C225.759 3.08792 232.406 2.62262 239.129 2.27341L239.052 0.775433C245.654 0.432499 252.328 0.201245 259.066 0.085802L259.091 1.58558C262.412 1.52869 265.747 1.5 269.097 1.5C272.447 1.5 275.783 1.52869 279.103 1.58558L279.129 0.0858025C285.866 0.201246 292.541 0.4325 299.143 0.775434L299.065 2.27342C305.788 2.62262 312.436 3.08792 318.999 3.6649L319.13 2.17067C325.86 2.76225 332.5 3.47094 339.043 4.29205L338.856 5.78038C345.552 6.62074 352.144 7.57911 358.621 8.6504L358.865 7.1705C365.557 8.27727 372.127 9.50428 378.564 10.846L378.257 12.3144C384.879 13.6947 391.359 15.1966 397.682 16.8139L398.054 15.3607C404.657 17.0496 411.093 18.8642 417.345 20.7975L416.902 22.2306C423.408 24.242 429.712 26.3821 435.801 28.6427L436.323 27.2365C442.752 29.6236 448.941 32.1454 454.873 34.7925L454.262 36.1623C460.518 38.9546 466.483 41.8858 472.132 44.9445L472.847 43.6254C478.933 46.9208 484.66 50.3654 489.999 53.946L489.164 55.1917C494.893 59.0344 500.166 63.0301 504.946 67.161L505.927 66.026C511.232 70.6097 515.946 75.3648 520.021 80.269L518.867 81.2276C523.274 86.5314 526.911 91.9973 529.724 97.5946L531.065 96.921Z" stroke="#0D6800" stroke-opacity="0.2" stroke-width="3" stroke-dasharray="20 20"/>
<path d="M461.336 97.7584C465.248 103.594 467.974 109.673 469.381 115.936L467.917 116.265C468.626 119.418 468.988 122.615 468.988 125.851C468.988 129.086 468.626 132.284 467.917 135.436L469.381 135.765C467.974 142.028 465.248 148.108 461.336 153.943L460.09 153.108C456.689 158.181 452.356 163.086 447.168 167.777L448.174 168.89C443.511 173.106 438.185 177.136 432.259 180.951L431.447 179.689C426.163 183.091 420.39 186.324 414.174 189.365L414.834 190.712C409.073 193.53 402.941 196.181 396.475 198.649L395.94 197.247C389.953 199.531 383.675 201.659 377.133 203.614L377.563 205.051C371.344 206.91 364.892 208.615 358.231 210.152L357.894 208.69C351.569 210.15 345.054 211.459 338.371 212.608L338.625 214.086C332.18 215.193 325.581 216.151 318.847 216.951L318.67 215.461C312.183 216.232 305.569 216.855 298.846 217.322L298.95 218.819C292.392 219.275 285.731 219.583 278.983 219.737L278.949 218.237C275.649 218.313 272.328 218.351 268.988 218.351C265.648 218.351 262.327 218.313 259.028 218.237L258.993 219.737C252.245 219.583 245.584 219.275 239.027 218.819L239.131 217.322C232.407 216.855 225.794 216.232 219.307 215.461L219.13 216.951C212.395 216.151 205.796 215.193 199.352 214.086L199.606 212.608C192.923 211.459 186.408 210.15 180.083 208.69L179.745 210.152C173.085 208.615 166.632 206.91 160.414 205.051L160.843 203.614C154.302 201.659 148.023 199.531 142.036 197.247L141.502 198.649C135.035 196.181 128.903 193.53 123.143 190.712L123.802 189.365C117.586 186.324 111.814 183.091 106.53 179.689L105.718 180.951C99.7919 177.136 94.4654 173.106 89.8026 168.89L90.8086 167.777C85.6209 163.086 81.2876 158.181 77.8865 153.108L76.6406 153.943C72.7285 148.108 70.003 142.028 68.5957 135.765L70.0592 135.436C69.3509 132.284 68.9883 129.086 68.9883 125.851C68.9883 122.615 69.3509 119.418 70.0592 116.265L68.5957 115.936C70.003 109.673 72.7286 103.594 76.6406 97.7584L77.8865 98.5936C81.2877 93.5205 85.6209 88.615 90.8086 83.9242L89.8026 82.8116C94.4654 78.5955 99.7919 74.565 105.718 70.7504L106.53 72.0117C111.814 68.6102 117.586 65.3775 123.802 62.3366L123.143 60.9892C128.903 58.1713 135.035 55.52 141.502 53.0526L142.036 54.4541C148.023 52.1697 154.302 50.0427 160.843 48.0871L160.414 46.65C166.632 44.7908 173.085 43.0866 179.745 41.5492L180.083 43.0108C186.408 41.5509 192.923 40.2417 199.606 39.0934L199.352 37.6151C205.796 36.5079 212.395 35.55 219.13 34.7503L219.307 36.2398C225.794 35.4696 232.408 34.8466 239.131 34.379L239.027 32.8826C245.584 32.4266 252.245 32.118 258.993 31.9642L259.028 33.4638C262.327 33.3886 265.648 33.3506 268.988 33.3506C272.328 33.3506 275.649 33.3886 278.949 33.4638L278.983 31.9642C285.731 32.118 292.392 32.4266 298.95 32.8826L298.846 34.379C305.569 34.8466 312.183 35.4696 318.67 36.2398L318.847 34.7503C325.581 35.55 332.18 36.5079 338.625 37.6151L338.371 39.0934C345.054 40.2417 351.569 41.5509 357.894 43.0108L358.231 41.5492C364.892 43.0866 371.344 44.7908 377.563 46.65L377.133 48.0871C383.675 50.0427 389.953 52.1697 395.94 54.4541L396.475 53.0526C402.941 55.52 409.073 58.1713 414.834 60.9892L414.174 62.3366C420.39 65.3775 426.163 68.6103 431.447 72.0117L432.259 70.7505C438.185 74.5651 443.511 78.5955 448.174 82.8116L447.168 83.9242C452.356 88.615 456.689 93.5205 460.09 98.5937L461.336 97.7584Z" stroke="#0D6800" stroke-opacity="0.2" stroke-width="3" stroke-dasharray="20 20"/>
<path d="M379.272 101.898C383.925 106.605 387.249 111.661 389.018 116.958L387.596 117.433C388.514 120.184 388.988 122.994 388.988 125.851C388.988 128.707 388.514 131.517 387.596 134.268L389.018 134.744C387.249 140.041 383.925 145.096 379.272 149.803L378.206 148.748C374.422 152.576 369.711 156.192 364.186 159.525L364.961 160.81C360.124 163.728 354.695 166.42 348.759 168.846L348.192 167.457C342.925 169.61 337.247 171.553 331.218 173.258L331.627 174.702C326.033 176.284 320.146 177.66 314.012 178.809L313.736 177.335C308.01 178.407 302.066 179.28 295.943 179.934L296.103 181.426C290.235 182.053 284.205 182.482 278.048 182.695L277.996 181.195C275.022 181.298 272.018 181.351 268.988 181.351C265.958 181.351 262.954 181.298 259.981 181.195L259.929 182.695C253.772 182.482 247.742 182.053 241.874 181.426L242.033 179.934C235.91 179.28 229.966 178.407 224.241 177.335L223.965 178.809C217.831 177.66 211.944 176.284 206.35 174.702L206.758 173.258C200.73 171.553 195.052 169.61 189.785 167.457L189.218 168.846C183.282 166.42 177.853 163.728 173.016 160.81L173.791 159.525C168.265 156.192 163.554 152.576 159.771 148.748L158.704 149.803C154.051 145.096 150.727 140.041 148.958 134.744L150.381 134.268C149.462 131.517 148.988 128.707 148.988 125.851C148.988 122.994 149.462 120.184 150.381 117.433L148.958 116.958C150.727 111.661 154.051 106.605 158.704 101.898L159.771 102.953C163.555 99.125 168.265 95.5095 173.791 92.176L173.016 90.8916C177.853 87.9732 183.282 85.2812 189.218 82.8553L189.785 84.2439C195.052 82.0913 200.73 80.1477 206.758 78.4427L206.35 76.9994C211.944 75.4174 217.831 74.041 223.965 72.8923L224.241 74.3666C229.966 73.2944 235.91 72.4215 242.033 71.7668L241.874 70.2753C247.742 69.6478 253.772 69.2196 259.929 69.0066L259.981 70.5057C262.954 70.4029 265.958 70.3506 268.988 70.3506C272.018 70.3506 275.022 70.4029 277.996 70.5057L278.048 69.0066C284.205 69.2196 290.235 69.6478 296.103 70.2753L295.943 71.7668C302.066 72.4215 308.01 73.2944 313.736 74.3666L314.012 72.8923C320.146 74.041 326.033 75.4174 331.627 76.9994L331.218 78.4427C337.247 80.1477 342.925 82.0913 348.192 84.2439L348.759 82.8553C354.695 85.2812 360.124 87.9732 364.961 90.8916L364.186 92.176C369.711 95.5095 374.422 99.1251 378.206 102.953L379.272 101.898Z" stroke="#0D6800" stroke-opacity="0.2" stroke-width="3" stroke-dasharray="20 20"/>
</svg>
